<?xml version="1.0" encoding="UTF-8"?><svg id="Layer_2" xmlns="http://www.w3.org/2000/svg" xmlns:xlink="http://www.w3.org/1999/xlink" viewBox="0 0 1122.96 447.5"><defs><linearGradient id="linear-gradient" x1="555.65" y1="292.76" x2="555.65" y2="120.58" gradientTransform="translate(0 450) scale(1 -1)" gradientUnits="userSpaceOnUse"><stop offset=".35" stop-color="#f8f8f8"/><stop offset=".72" stop-color="#c9c9c9"/></linearGradient><linearGradient id="linear-gradient-2" x1="725.51" y1="293.2" x2="725.51" y2="120.91" xlink:href="#linear-gradient"/><linearGradient id="linear-gradient-3" x1="857.64" y1="301.19" x2="857.64" y2="121.04" xlink:href="#linear-gradient"/><linearGradient id="linear-gradient-4" x1="122.24" y1="7652.11" x2="122.24" y2="7519.26" gradientTransform="translate(2.35 -7325.89)" gradientUnits="userSpaceOnUse"><stop offset=".06" stop-color="#53b848"/><stop offset=".55" stop-color="#65ccec"/><stop offset=".58" stop-color="#61c3e7"/><stop offset=".69" stop-color="#55a7d8"/><stop offset=".79" stop-color="#4d92cd"/><stop offset=".9" stop-color="#4886c6"/><stop offset="1" stop-color="#4682c4"/></linearGradient><linearGradient id="linear-gradient-5" x1="146.02" y1="7651.98" x2="356.89" y2="7400.68" gradientTransform="translate(2.35 -7325.89)" gradientUnits="userSpaceOnUse"><stop offset="0" stop-color="#6ebe44"/><stop offset="0" stop-color="#6ebe44"/><stop offset=".25" stop-color="#bcda20"/><stop offset=".42" stop-color="#eceb09"/><stop offset=".51" stop-color="#fff200"/><stop offset=".58" stop-color="#fbca08"/><stop offset=".68" stop-color="#f79a11"/><stop offset=".78" stop-color="#f47419"/><stop offset=".86" stop-color="#f1581f"/><stop offset=".94" stop-color="#f04822"/><stop offset="1" stop-color="#ef4223"/></linearGradient><linearGradient id="linear-gradient-6" x1="65.8" y1="7652.1" x2="65.8" xlink:href="#linear-gradient-4"/><linearGradient id="linear-gradient-7" x1="89.59" y1="7651.98" x2="300.45" y2="7400.68" xlink:href="#linear-gradient-5"/><linearGradient id="linear-gradient-8" x1="324.27" y1="298.84" x2="324.27" y2="120.55" xlink:href="#linear-gradient"/><linearGradient id="linear-gradient-9" x1="1000.57" y1="298.59" x2="1000.57" y2="120.32" xlink:href="#linear-gradient"/></defs><path d="M622.89,157.24l59.04.37c1.13,0,9.23,1.31-.9,3.96-8.09,2.11-14.72,1.31-17.36,11.84l-31.86,127.91c-2.65,11.43,6.24,21.28,17.74,24.37,2.6.63,2.76,3.4-.31,3.57l-38.8-1.43-47.13,1.59c-3.42,0-3.56-3.55.17-4.21,11.02-1.12,20.75-10.2,22.87-17.65l30.99-111.08c0-1.68-.86-2.55-1.81-2.55-.69,0-1.43.47-1.91,1.42l-87.24,126.61c-2.42,3.9-6.22,6.48-9.58,6.48-3.63,0-6.76-3.01-7.09-10.65l-8.78-118.03c-.1-1.64-1.47-2.88-2.85-2.88-.95,0-1.89.59-2.42,2.04l-29.92,93.64c-2.45,7.12-2.62,14.07.29,19.11,2.9,5.17,10.36,11.49,19.09,13.27,3.4.82,3.22,4.21,0,4.38l-31.34-1.31-26.33.99c-3.09-.17-2.76-3.23,0-3.73,9.07-1.94,19.46-11.17,24.18-24.3l38.77-124.59c1.63-4.71-.94-10.37-5.65-11.5l-11.99-2.43c-2.11-.16-2.41-3.23,0-3.23l68.8-.56,6.9,108.46,5.05-6.14,65.66-97.4c.81-1.32,2.76-4.39,3.74-6.33Z" style="fill:url(#linear-gradient);"/><path d="M711.94,156.8l79.26.66c3.73,0,5.48,6.6-1.98,7.26-7.96.7-16.29,6.37-18.25,13.15l-37.14,128.35c-1.79,6.81,3.16,18.19,15.95,19.15,2.11.49,2.1,3.72.16,3.72l-46.81-1.79-44.96,1.36c-2.44,0-1.77-3.23.31-3.56,6.16-1.12,24.07-8.07,27.49-19.08l41.4-128.14c2.59-9.22-5.97-13.76-15.69-16.03-2.1-.34-1.67-4.88.26-5.04Z" style="fill:url(#linear-gradient-2);"/><path d="M919.34,148.81c8.13,0,16.11.67,23.78,2.1,4.87.98,10.84,3.21,9.38,7.42l-11.7,29.82c-.93,3.04-2.46,4.88-4.02,4.88-2.17,0-4.37-3.55-5.05-12.37-.39-4.83.39-22.19-6.23-22.57-1.68-.09-3.36-.13-5.04-.13-10.62,0-21.17,1.75-30.56,4.75-35.79,11.42-58.48,30.95-73.45,64.28-14.63,32.07-7.4,66.74,2.93,78.56,7.05,8.05,23.5,13.62,36.15,13.62,7.43,0,13.54-1.92,15.66-6.39,6.85-16.45,10.17-36.63,9.53-45.86.03-11.19-4.36-12.06-12.7-13.6-5.85-.62-7.72-4.41,3.2-4.41.58,0,1.2.01,1.85.04,3.51-.02,6.92-.04,10.28-.04,7.69,0,15.06.04,22.38.08,6.88.04,13.71.07,20.74.07,6.43,0,13.03-.03,19.95-.12,1.94.96,1.77,1.78-.17,2.74-11.83,1.77-16.54,4.05-17.68,8.43-4.58,15.55-8.68,32.56-16.09,48.51-2.63,5.71-15.06,11.14-19.11,12.29-12.59,4.48-33.51,8.05-53.43,8.05-15.99,0-31.34-2.3-41.23-8.29-37.07-22.66-43.73-65.62-28.6-93.94,22.44-42.14,90.06-77.92,149.22-77.92Z" style="fill:url(#linear-gradient-3);"/><path d="M1105.64,328.21v-9.86h-3.69v-1.32h8.87v1.32h-3.7v9.86h-1.48Z" style="fill:#878787;"/><path d="M1112.29,328.21v-11.18h2.23l2.65,7.92c.24.73.42,1.29.54,1.66.12-.41.32-1.01.59-1.79l2.68-7.79h1.99v11.18h-1.42v-9.36l-3.25,9.36h-1.34l-3.23-9.52v9.52h-1.43Z" style="fill:#878787;"/><polygon points="56.43 193.37 103.75 193.37 192.74 326.21 145.86 326.21 56.43 193.37" style="fill:url(#linear-gradient-4);"/><polygon points="313.48 75.73 360.36 75.73 193.23 326.21 148.52 326.21 313.48 75.73" style="fill:url(#linear-gradient-5);"/><polygon points="0 193.37 47.32 193.37 136.31 326.21 89.43 326.21 0 193.37" style="fill:url(#linear-gradient-6);"/><polygon points="257.04 75.73 303.93 75.73 136.8 326.21 92.08 326.21 257.04 75.73" style="fill:url(#linear-gradient-7);"/><path d="M305.66,267.99l-23.06,32.7c-6.84,10.69,6.1,21.87,20.36,24.47,1.31,1.02,1.09,4.28-.82,4.28-.21,0-.43-.04-.68-.12-.29-.12-5.67-2.37-17.89-3.51-3.27-.31-9.16-1.31-16.33-1.31-2.47,0-5.09.12-7.82.42l-25.8,3.63c-2.44-.16-2.43-3.07,0-3.73,12.47-1.61,27.4-10.86,36.17-23.32l104.94-146.38c1.73-2.51,5.44-3.98,9.04-3.98,4.51,0,8.86,2.29,8.95,7.7l3.46,146.54c1.12,12.29,9.36,17.49,19.73,20.39,1.45.98.81,2.93-.17,3.26-.67-.01-13.47-.21-28.76-2.48-3.58-.53-6.38-.83-9.8-.83-2.96,0-6.38.23-11.17.74-6,.63-3.17.72-27.46,1.8-.92.04-1.82-.2-2.01-1.76.22-1.8,2.93-2.67,3.8-2.9,9.71-2.69,14.49-7.56,16.62-19.5,2.3-13.13,1.68-24.3,1.37-35.79l-52.66-.32ZM343.45,259.43c5.34,0,10.37.03,14.11.11l-1.39-61c-.26-.79-.62-1.2-1.03-1.2-.33,0-.71.29-1.08.87-12.99,18.45-30.88,41.06-43.71,59.37-.82,1.44,0,1.94,1.94,1.94.31.03,1.36.04,2.97.04,2.76,0,7.14-.03,12.17-.05,5.02-.04,10.68-.08,16.02-.08" style="fill:url(#linear-gradient-8);"/><path d="M1092.22,326.05c1.45.95.79,2.9-.17,3.23-.67-.01-13.47-.21-28.76-2.45-3.63-.54-6.45-.85-9.91-.85-2.93,0-6.31.22-11.06.72-6.02.63-3.17.72-27.49,1.8-.91.04-1.79-.2-1.98-1.76.21-1.8,2.93-2.65,3.78-2.91,9.72-2.67,14.51-7.55,16.65-19.5,2.29-13.11,1.66-24.28,1.35-35.79l-52.67-.3-23.07,32.71c-6.81,10.68,6.12,21.83,20.38,24.44,1.31,1.03,1.07,4.29-.84,4.29-.21,0-.44-.04-.7-.12-.29-.12-5.66-2.35-17.87-3.51-3.27-.31-9.16-1.31-16.33-1.31-2.47,0-5.09.12-7.81.42l-25.82,3.63c-2.42-.17-2.41-3.07,0-3.73,12.49-1.61,27.4-10.84,36.19-23.32l104.94-146.35c1.73-2.52,5.44-3.99,9.04-3.99,4.52,0,8.87,2.3,8.96,7.71l3.45,146.52c1.1,12.3,9.36,17.48,19.73,20.4ZM1019.69,259.69c5.36,0,10.41.03,14.17.11l-1.36-61.03c-.27-.79-.63-1.2-1.03-1.2-.34,0-.7.29-1.07.87-13.01,18.47-30.88,41.08-43.73,59.36-.8,1.45,0,1.94,1.94,1.94.38.04,1.87.04,4.12.04,2.73,0,6.58-.02,10.93-.04,5.01-.03,10.68-.06,16.05-.06" style="fill:url(#linear-gradient-9);"/></svg>