<?xml version="1.0" encoding="UTF-8"?><svg id="Layer_2" xmlns="http://www.w3.org/2000/svg" xmlns:xlink="http://www.w3.org/1999/xlink" viewBox="0 0 1240.78 447.5"><defs><linearGradient id="linear-gradient" x1="446.1" y1="-104.5" x2="817.26" y2="538.38" gradientTransform="translate(0 450) scale(1 -1)" gradientUnits="userSpaceOnUse"><stop offset="0" stop-color="#ff3eff"/><stop offset=".56" stop-color="#570073"/></linearGradient></defs><g id="svg2"><path d="M227.26,327.75h-56.08l-17.4-63.3h-1.71l-31.85,32.5H0l137.63-140.81h48.2l41.4,171.61h.03ZM152.08,257.23l-9.55-41.4c0-.98-.35-1.63-1.05-1.91-.28-.15-.58-.2-.85-.2-.15,0-.5.08-1.05.2l-42.06,43.34h54.6l-.03-.03ZM392.5,156.14c5.52,0,9.98,1.48,13.39,4.46,3.41,2.98,5.87,6.7,7.42,11.16,1.55,4.46,2.23,9.35,2.01,14.65-.2,5.32-1.18,10.31-2.86,14.97-2.41,6.52-5.74,12.46-9.98,17.83-4.24,5.39-9.1,10.08-14.55,14.12-5.44,4.04-11.44,7.32-17.96,9.88-6.52,2.56-13.17,4.24-19.96,5.09v.85l32.93,47.77h-74.13l-38.02-54.17,12.74-35.26h72.2c1.55,0,2.86-.75,3.94-2.23s1.81-2.78,2.23-3.94c.58-1.4.45-2.68-.33-3.81s-1.88-1.71-3.29-1.71h-82.18l-17.2,47.37h-49.71l31.65-87.05h151.65,0ZM603.18,213.92h-52.04l7-18.91h-69.02c-1.98,0-3.34.53-4.04,1.61-.7,1.05-1.28,2.16-1.71,3.29l-18.68,51.61c-.58,2.26-.95,3.94-1.18,4.99-.2,1.05.68,1.61,2.66,1.61h121.05l-14.22,38.87h-139.11c-5.82,0-10.51-1.4-14.12-4.24-3.61-2.83-6.29-6.39-8.08-10.73-1.78-4.31-2.63-9.13-2.56-14.45.08-5.32,1.03-10.51,2.86-15.6l18.48-50.56c1.83-5.09,4.64-10.33,8.4-15.72,3.76-5.39,8.1-10.23,13.07-14.55,4.97-4.31,10.26-7.9,15.92-10.73,5.67-2.83,11.39-4.24,17.2-4.24h139.11l-21.02,57.78v-.03ZM813.01,327.75h-56.08l-17.43-63.3h-1.71l-31.85,32.5h-120.2l137.63-140.81h48.2l41.43,171.61ZM737.83,257.23l-9.55-41.4c0-.98-.35-1.63-1.05-1.91-.28-.15-.58-.2-.85-.2-.15,0-.5.08-1.05.2l-42.06,43.34h54.6l-.03-.03ZM850.61,207.12h52.24l-18.48,50.98h69.02c1.98,0,3.26-.45,3.81-1.38s1.05-1.96,1.48-3.08l18.91-52.04c.55-2.26.98-3.94,1.28-4.99.28-1.05-.58-1.61-2.56-1.61h-121.28l14.02-38.87h139.34c5.79,0,10.56,1.43,14.22,4.24,3.69,2.83,6.37,6.39,8.08,10.73,1.71,4.31,2.48,9.18,2.33,14.55-.15,5.39-1.13,10.61-2.98,15.72l-18.48,50.56c-1.86,5.09-4.61,10.31-8.28,15.6-3.69,5.32-7.97,10.13-12.84,14.45-4.89,4.31-10.21,7.9-15.92,10.73-5.74,2.83-11.51,4.24-17.3,4.24h-139.34l32.7-89.83h.05ZM1169.6,246.19h-86.65l-4.24,11.89h125.09l-14.22,38.87h-177.35l34.83-95.57c1.83-5.09,4.64-10.33,8.4-15.72,3.76-5.39,8.1-10.23,13.07-14.55,4.97-4.31,10.26-7.9,15.92-10.73,5.67-2.83,11.39-4.24,17.2-4.24h139.11l-14.02,38.87h-121.05c-1.98,0-3.26.53-3.81,1.61-.58,1.05-1.43,2.73-2.56,4.99l-1.91,5.52h86.45l-14.22,39.07h-.05Z" style="fill:url(#linear-gradient);"/></g></svg>