<?xml version="1.0" encoding="utf-8"?>
<!-- Generator: Adobe Illustrator 29.2.1, SVG Export Plug-In . SVG Version: 9.03 Build 55982)  -->
<svg version="1.1" baseProfile="tiny"
	 id="Layer_2_00000158734187293127009890000008954336372484459648_" xmlns:xlink="http://www.w3.org/1999/xlink"
	 xmlns="http://www.w3.org/2000/svg" xmlns:xlink="http://www.w3.org/1999/xlink" x="0px" y="0px" viewBox="0 0 813 447.5"
	 overflow="visible" xml:space="preserve">
<g>
	<g id="_x23_ffffffff">
		<path fill="#C60000" d="M296.9,138.2c6.8-8.7,20.8-10.1,29.1-2.9c3.4,2.9,5.8,6.8,7,11.1c15.4,52.9,30.8,105.9,46.2,158.8
			c-9.1,0-18.2,0-27.2,0c-4.3-14.6-8.5-29.2-12.7-43.8c-17.6,0-35.1,0-52.7,0c-4.3,14.6-8.5,29.2-12.8,43.9c-9,0-18.1,0-27.1,0
			c14.6-50.5,29.3-101,43.9-151.5C292.4,148.4,293.1,142.5,296.9,138.2 M312.9,170.7c-6.4,21.9-12.7,43.9-19.2,65.9
			c12.8,0.1,25.5,0,38.3,0C325.6,214.6,319.3,192.6,312.9,170.7z"/>
		<path fill="#C60000" d="M488.2,139.4c4.7-6.9,13.9-10.2,21.9-8.1c7.4,1.7,13,8.1,15,15.2c15.4,52.9,30.8,105.8,46.2,158.7
			c-9.1,0.1-18.2,0-27.3,0c-4.2-14.6-8.4-29.2-12.7-43.8c-17.5,0-35.1,0-52.6,0c-4.2,14.6-8.5,29.2-12.7,43.8c-9,0-18,0-27.1,0
			c14.6-50.8,29.4-101.5,44.1-152.3C484.6,148.4,485.2,143.3,488.2,139.4 M486,236.5c12.7,0,25.4,0,38.1,0c-6.3-22-12.7-44-19.1-66
			C498.7,192.6,492.3,214.5,486,236.5z"/>
		<path fill="#C60000" d="M358.9,131c32.9,0,65.7,0,98.5,0c0,8.9,0,17.7,0,26.6c-12.1,0-24.2,0-36.3,0c0,49.2,0,98.4,0,147.6
			c-8.7,0-17.3,0-26,0c0-49.2,0-98.4,0-147.6c-12.1,0-24.2,0-36.3,0C358.9,148.7,358.9,139.9,358.9,131z"/>
		<path fill="#C60000" d="M600.1,132.1c2.5-0.9,5.2-1.2,7.8-1.1c10.4,0,20.7,0,31.1,0c17.4,0.3,34.1,11.1,41.6,26.8
			c5.2,10.2,5.8,22.1,4.4,33.2c-0.9,11.7-5.8,23.4-14.8,31.2c-4.8,4.2-10.7,6.8-15.8,10.6c-2.8,2.1-2.9,6.3-1.5,9.2
			c13.7,21.2,28,42.1,42.1,63.2c-10.3,0-20.5,0-30.8,0c-13.4-20.2-26.7-40.5-40.1-60.7c-3.9-5.8-5-13.4-2.6-19.9
			c1.8-5,6.2-8.7,11.1-10.6c9.4-3.6,18.6-9.2,23.8-18c3.9-6.6,3.7-14.8,2-22.1c-2.1-9.4-11.3-16.8-21-16.5c-6.7,0-13.4,0-20.1,0
			c-3-0.1-5.9,2.6-5.9,5.6c0,47.4,0,94.8,0,142.2c-8.7,0-17.4,0-26.2,0c0-51,0-102,0-153.1C585.3,143.2,591.6,134.8,600.1,132.1z"/>
		<path fill="#C60000" d="M708.8,131c9.2,0,18.4,0,27.5,0c0,58.1,0,116.1,0,174.2c-9.2,0-18.4,0-27.5,0
			C708.8,247.1,708.8,189.1,708.8,131z"/>
	</g>
	<g>
		<path fill="#C60000" d="M77.7,130.7c4.4,0,8.8,0,13.2,0c0,10.4,0,20.7,0,31.1c0,8.7-0.2,17.3-0.6,26c-0.6,12.5-1.4,25-3.4,37.4
			c-1.4,8.5-4.4,16.7-8,24.5c-6,12.6-15.3,23.2-25.9,32.1c-9.4,8.3-20.7,14.3-32.5,18.4c-6.7,2.3-13.6,4.1-20.6,5.1
			c0-8.7,0-17.4,0-26.1c8.4-1.3,16.5-4.3,24.1-8.2c8.9-4.7,17-11.1,23.8-18.6c7-7.7,12.6-16.7,16.8-26.2c5-10.9,7.6-22.7,9.5-34.6
			c2.3-15,3.2-30.2,3.6-45.4C77.7,141,77.7,135.8,77.7,130.7z"/>
		<path fill="#C60000" d="M96.2,130.7c8.1-0.1,16.2,0,24.4,0c0,58.2,0,116.4,0,174.6c-8.1,0-16.2,0-24.3,0c-0.1-18.6,0-37.1,0-55.7
			C96.3,209.9,96.3,170.3,96.2,130.7z"/>
		<path fill="#C60000" d="M126,130.6c4.4,0,8.8,0,13.2,0c-0.1,17.7,0.5,35.5,2.6,53.1c1.7,13.7,4.2,27.5,9.6,40.2
			c5.2,12.3,12.6,23.8,22.3,33.1c9.3,8.8,20.5,15.6,32.7,19.6c3.4,1.1,6.9,1.9,10.4,2.5c0,8.7,0,17.4,0,26.1c-7-0.9-13.8-2.7-20.4-5
			c-7.9-2.8-15.6-6.3-22.6-10.9c-5.1-3.3-9.8-7.2-14.3-11.4c-7.4-6.8-14-14.6-19-23.3c-3.9-6.8-6.7-14.2-8.9-21.7
			c-2-7.6-2.9-15.4-3.7-23.1c-1.5-16.8-2.1-33.7-2-50.5C126,149.7,126,140.2,126,130.6z"/>
		<path fill="#C60000" d="M77.7,130.7c0,5.1,0,10.3,0,15.4c-0.4,15.2-1.3,30.4-3.6,45.4c-1.8,11.8-4.5,23.6-9.5,34.6
			c-4.2,9.5-9.8,18.5-16.8,26.2c-6.8,7.5-14.8,13.9-23.8,18.6c-7.5,4-15.6,7-24.1,8.2c0,8.7,0,17.4,0,26.1c7-1,13.9-2.8,20.6-5.1
			c11.8-4.1,23.1-10.1,32.5-18.4c10.5-8.9,19.9-19.6,25.9-32.1c3.7-7.8,6.6-16,8-24.5c2.1-12.3,2.9-24.9,3.4-37.4
			c0.4-8.6,0.6-17.3,0.6-26c0-10.4,0-20.7,0-31.1C86.5,130.7,82.1,130.6,77.7,130.7"/>
		<path fill="#C60000" d="M96.2,130.7c0,39.6,0,79.3,0,118.9c0,18.6-0.1,37.1,0,55.7c8.1-0.1,16.2,0,24.3,0c0-58.2,0-116.4,0-174.6
			C112.5,130.7,104.4,130.6,96.2,130.7"/>
		<path fill="#C60000" d="M126,130.6c0,9.5,0,19.1,0,28.6c-0.1,16.9,0.5,33.7,2,50.5c0.8,7.8,1.7,15.6,3.7,23.1
			c2.2,7.5,5.1,14.9,8.9,21.7c5,8.8,11.6,16.5,19,23.3c4.5,4.1,9.1,8.1,14.3,11.4c7,4.6,14.7,8.1,22.6,10.9c6.6,2.3,13.5,4,20.4,5
			c0-8.7,0-17.4,0-26.1c-3.5-0.5-7-1.4-10.4-2.5c-12.2-3.9-23.4-10.7-32.7-19.6c-9.7-9.2-17.2-20.7-22.3-33.1
			c-5.5-12.8-7.9-26.5-9.6-40.2c-2.1-17.6-2.7-35.4-2.6-53.1C134.8,130.6,130.4,130.6,126,130.6"/>
	</g>
	<path fill="#C60000" d="M806.3,273.1h5.7v32.2l-26.8-21.8c-2.5-2.1-5.6-4.4-8.9-4.4c-5.2,0-9.5,4.6-9.5,9.8c0,5.1,4.1,9.3,9.1,9.6
		v6.2c-8.9-1-14.8-6.7-14.8-15.8c0-8.5,6.3-15.7,14.9-15.7c3.7,0,7.4,1.4,10.2,3.7l20,16.4L806.3,273.1L806.3,273.1z"/>
	<path fill="#C60000" d="M764.1,244.6l18,13.3l0.1-0.1c-0.7-1.5-1.2-3.1-1.2-4.9c0-8.2,7.6-14.4,15.6-14.4c9.1,0,16.4,7.4,16.4,16.5
		c0,8.6-7.1,16.6-15.9,16.6c-5,0-9.3-2.5-13.2-5.4l-22.9-17L764.1,244.6z M797.3,244.4c-6.2,0-10.7,5.3-10.7,10.6
		c0,5.4,5,10.6,10.4,10.6c5.8,0,10.5-4.9,10.5-10.6C807.4,249.4,802.8,244.4,797.3,244.4z"/>
	<path fill="#C60000" d="M761,211.3c0,14.3,11.7,25.9,26.1,25.9c14.3,0,25.9-11.6,25.9-25.9c0-14.7-11.4-26.2-26-26.2
		C772.5,185.1,761,196.6,761,211.3z M787.1,191.2c11.3,0,20.1,9,20.1,20.4c0,10.7-9,19.5-20.1,19.5c-11.2,0-20.3-8.7-20.3-19.5
		C766.8,200,775.6,191.2,787.1,191.2z"/>
	<path fill="#C60000" d="M761,156.9c0,14.3,11.7,25.9,26.1,25.9c14.3,0,25.9-11.6,25.9-25.9c0-14.7-11.4-26.2-26-26.2
		C772.5,130.7,761,142.2,761,156.9z M787.1,136.8c11.3,0,20.1,9,20.1,20.4c0,10.7-9,19.5-20.1,19.5c-11.2,0-20.3-8.7-20.3-19.5
		C766.8,145.6,775.6,136.8,787.1,136.8z"/>
</g>
</svg>
