<?xml version="1.0" encoding="UTF-8"?><svg id="Layer_2" xmlns="http://www.w3.org/2000/svg" viewBox="0 0 1091.48 447.5"><path d="M172.13,245.21c5.08-15.17,9.63-30.52,14.38-45.81,1.17-3.77,2.27-7.56,3.4-11.34.14-.82,4.32-15.42,5.91-21.98,1.9-7.85,3.95-15.74,4.9-23.73.59-4.95,2.77-7.51,7.04-8.83,2.5-.77,3.87-2.04,6.46-2.23,2.12-.16,3.6-.69,4.58-2.64.83-1.65,2.97-2.67,4.08-4.15.82-1.09,1.87-2.39,3.06-2.75,3.43-1.03,7.08-1.36,10.47-2.49,4.28-1.41,9.22-2.43,12.33-5.3,3.18-2.93,6.14-4.53,10.25-4.84,3.81-.29,7.12-1.76,8.34-5.75.76-2.47,2.65-3.58,4.56-4.81,1.75-.35,2.72-1.05,2.93-3.15.21-2.09-7.66-.93-8.18-1.45-2.42-2.46-2.19-2.95,1-4.15,2.08-.78,4.36-1.03,6.54-1.52,1.33-.32,2.65-.63,3.98-.95,3.14-.41,6.28-.85,9.43-1.22,5.45-.65,10.92-1.2,16.36-1.9,1.27-.17,2.64-.56,3.69-1.26.97-.64,2.29-2.91,2.32-4.02.03-1.11-2.15-1.73-3.2-1.7-4.35.15-8.72.45-13.03,1.06-6.71.95-13.39,2.12-20.05,3.35-5.56,1.03-11.08,2.26-16.62,3.41-.78.09-10.76,2.42-11.48,2.62-2.14.51-4.28,1.02-6.42,1.53l-.48.07c-2.09.37-4.19.74-6.28,1.11-6.5,1.35-12.98,2.76-19.5,4.02-3.53.68-7.14,1.56-10.66,2.31-5.01,1.07-9.92,2.01-14.95,2.99-11.11,2.18-22.27,4.13-33.41,6.18-1.07.04-39.56,6.87-60.04,7.47-4.75.14-9.51.06-14.27.02-1.65-.01-2.96.26-3.49,2.15-.67,2.42-.12,3.22,2.7,4.33,1.27.51,2.31,1.57,3.46,2.38-1.32.88-2.55,1.98-3.99,2.58-.98.41-2.27.04-3.39.2-.9.13-1.91.34-2.61.87-3.01,2.29-2.09,5,2.32,7.01,5.85,2.67,6.2,3.92,2.55,9.21-.7.48-2.11.93-2.11,1.45,0,.51,1.26,1.2,2,1.41.63.18,1.42-.21,2.15-.35.96,1.06,2.25,1.98,2.81,3.22,1.18,2.64,2.89,3.68,5.8,3.46,8.11-.63,16.31-.57,24.33-1.74,8.39-1.22,16.53-3.88,25.07-4.63,6.97-.61,13.87-1.97,20.81-3,1.87-.28,2.95.44,2.89,2.44-.09,2.66.15,5.48-.32,7.96-.47,2.48-1.93,10.71-3.25,16.51-1.74,7.69-4.28,16.36-4.33,16.82-.77,2.65-1.54,5.3-2.3,7.95-2.59,8.09-8.69,28.32-9.18,30.34-2.27,9.24-12.12,32.95-13.54,36.02-3.28,7.06-6.57,14.15-10.53,20.83-3.91,6.59-8.65,12.68-13.04,18.98-3.38,4.84-11.96,13.32-12.07,13.44-12.8,14.6-27.33,17.71-27.67,17.83-9.52,3.3-18.61,3.22-27.94-1.5-4.2-2.13-8.68-4-12.33-6.88-3.91-3.08-8.14-7.04-11.73-10.24-1.07-.96-1.84-2.34-3.32-3.11-2.19-1.14-3.71-.16-3.81,2.37-.05,1.1.04,2.39.57,3.3,4.11,6.9,8.68,13.54,15.58,17.89,6.7,4.23,16.82,9.05,23.55,11.76,6.73,2.7,12.09,4.52,17.29,5.58,5.19,1.06,13.97,2.54,21.31.36,7.33-2.17,15.46-5.52,26.79-14.76,11.33-9.25,34.07-35.2,42.82-51.33,3.77-6.93,7.17-14.07,10.58-21.19,2.86-5.96,6.02-11.85,8.11-18.08Z" style="fill:#f50005;"/><polygon points="510.01 263.4 509.99 263.42 509.98 263.44 510.01 263.4" style="fill:#f50005;"/><path d="M314.29,127.04c-1.15-.29-2.31-.58-3.46-.87l-.13-.03c-.23-3.19-.37-6.38-.73-9.56-.2-1.72.44-4.06-2.38-4.46l-.02.03c-1.79-1.49-5.67-.29-5.67-.29,0,0-3.9.72-4.69,2.77-2.42.31-4.84.87-7.27.89-8.21.09-8.18.03-11.19,7.62-.38.97-1.18,1.77-1.78,2.65-.68-.79-1.8-1.5-1.97-2.39-.57-2.97-2.48-3.54-5.02-3.33-2.5.21-2.53,2.05-3.05,4.01-1.26,4.72-2.51,9.67-6.69,12.81-5.04,3.79-7.05,9.17-8.7,14.85-1.25,4.3-1.71,8.98-5.88,11.91-.58.41-1.14,3.22-.95,3.59-3.55,4.74-14.45,20.86-16.05,24.05-1.74,3.5-3.84,6.99-4.65,10.73-.66,3.08-1.54,5.69-3.71,7.89-4.23,2.31-3.21,6.45-3.52,10.12-.71,1.14-1.42,2.29-2.13,3.43-.53.76-1.06,1.52-1.59,2.28-.27.29-.53.58-.8.86-.72.83-.82,1.88-2.16,2.51-1.34.62-6.02,2.31-9.11,3.19-4.7,1.32-5.71,1.97-5.56,4.49.21,3.45,2.79,3.56,5.34,3.72,2.14.13,2.58,1.45,1.79,3.16-2.48,5.31-4.92,10.66-7.63,15.85-6.4,12.24-19.79,37.66-19.96,38.18-1.22,3.09-2.45,6.18-3.67,9.28,0,.4-.02.79-.03,1.19-.49.67-.98,1.34-1.47,2.01-.27.45-.55.89-.82,1.34-.08.38-.16.76-.24,1.13-1.35,2.48-3.35,4.83-3.88,7.47-.59,2.94-1.66,5.46-3.54,7.53-3.96,4.39-2.52,9.17-1.43,13.97.36,1.55,1.71,1.71,2.55.71,1.43-1.7,2.64-3.64,3.65-5.63,1.09-2.17,1.72-4.57,2.81-6.74.32-.63,1.59-1.21,2.29-1.1.51.09,1.28,1.52,1.11,2.12-.61,2.13-1.64,4.14-2.34,6.25-.18.54-.1,1.76.37,1.92s1.59-.35,1.81-.8c1.4-2.89,2.58-5.88,3.93-8.8,2.37-5.11,4.79-10.21,7.28-15.27.26-.53,1.25-1.17,1.67-1.03.53.18.91,1.05,1.16,1.7.19.5.15,1.13.06,1.68-.98,5.89-1.99,11.77-2.96,17.66-.05.32.16.96.27.97.51.02,1.3.03,1.47-.26.54-.92.87-1.97,1.24-2.98,1.69-4.54,2.04-9.75,6.7-12.81.83-.55,1.61-1.9,1.6-2.87-.02-4.24,9.85-25.35,11.02-27.61l.02-.03c.93-2.33,12.05-25.17,14.23-31.03.27-.72,3.81-8.48,4.05-8.8,1.56-3.42,3.13-6.84,4.69-10.26,2.36-1.16,4.65-2.5,7.1-3.45,12.46-4.84,41.73-16.86,43.18-16.51.02.37.03,3.18.04,3.55.03.77.06,1.53.08,2.3-.02,5.28-.14,10.56-.03,15.84.09,4.17,1.14,17.73.83,20.29-.49,4.03-.66,7.79,1.16,11.68,1.69,3.61,2.4,7.61,1.27,11.67l-.08.12c-.02,1.54-.05,3.09-.07,4.63h0c.27,2.81.25,5.61,2.53,7.89,1.56,1.57,2.76,2.07,4.06.12.94-1.41,1.5-1.19,2.5-.07,2.54,2.85,3.96,5.9,3.23,9.88-.24,1.29.35,2.88.96,4.14.34.7.9,1.99,2.27,1.5,1.37-.49,1.24-1.8,1.35-2.76.22-1.87-.07-3.8.12-5.68.17-1.65.5-3.34,1.14-4.86.37-.88,1.39-1.69,2.3-2.04.33-.12,1.33,1.1,1.81,1.85.6.95.78,2.19,1.46,3.04,1.64,2.06,3.91,1.69,4.66-.82.48-1.6.69-3.36.65-5.04-.19-7.02-.8-14.05-.73-21.06.14-14.06.65-28.13.97-42.19.32-13.88.55-27.76.94-41.64.12-4.16.9-8.3.94-12.45.12-13.52,1.34-26.92,3.48-40.27.64-3.97-.05-7.73-2.19-11.19l-.23-.07ZM273.22,201.56c-2.28.93-4.71,1.5-7,2.42-.96.39-3.13,1.92-3.13,1.92,0,0-.91,1.08-1.17,1.43-1.64.79-3.29,2.24-4.93,2.23-4.11-.02-6.9,1.74-8.99,5.02-.51.8-.88,1.75-1.55,2.38-.47.44-1.43.75-2.02.59-.53-.15-1.22-1.08-1.18-1.6.16-1.66.34-3.42,1.02-4.92,2.76-6.03,5.55-12.05,8.64-17.91,4.86-9.24,9.95-18.35,14.95-27.51.82-1.51,1.43-3.11,3.83-2.46.81.22,1.99-.55,2.88-1.07.85-.5,1.55-1.27,2.31-1.92.19,1.1.54,2.21.55,3.32.04,10.48-.1,20.97.08,31.45.06,3.4-1.37,5.45-4.28,6.64Z" style="fill:#f50005;"/><path d="M531.26,118c-1.14-.43-2.29-.87-3.43-1.3,0-.28-.09-.53-.27-.73-.05-.06,3.42-4.26,1.45-6.3-.53-.42-3.5-1.44-4.03-1.85-.27-1.66-.58-3.32-.79-4.98-.35-2.69-1.99-3.35-4.39-2.9-.78.55-1.55,1.1-2.33,1.65h-.34s-3.62-.29-3.62-.29c-2.61.77-1.56,2.16-4.17,2.94-.59.43-1.19.87-1.78,1.3-1.78,1.51-3.04,2.37-5.22,5.4-2.18,3.02-4.69,7.95-6.21,10.69-1.52,2.74-7.77,19-7.87,19.2-.5.46-10.94,23.55-14.38,31.28-2.68,6.02-6.21,13.24-8.83,20.49-2.62,7.25-5.14,18.32-5.73,19-.2.5-.39,1-.59,1.51-.26.77-.52,1.54-.78,2.31-.1.76-.2,1.52-.31,2.27-.74,4.16-1.86,9.85-2.66,12.38-.8,2.54-2.51,5.4-3.47,8.22-.79,5.38-1.71,10.75-2.33,16.15-.47,4.14-.56,8.32-.81,12.48.16,1.51.33,3.01.49,4.52.76,2.69.94,3.97,2.28,8.08,1.35,4.1,7.02,7.95,7.02,7.95,6.7,3.76,17.99,3.75,23.07.26,5.09-3.49,8.58-5.82,10.77-7.74,2.19-1.92,13.27-10.72,18.52-16.57,5.24-5.85,7.22-8.66,8.77-10.21.78,2.7.02,5.05-1.66,7.18-.36,1.03-.72,2.05-1.08,3.08-.28,4.67-.78,9.33-.79,14-.02,6.28,2.49,19.44,9.03,20.58,6.55,1.14,7.62,1.18,11.49-.78,3-1.53,6.43-2.31,9.75-3.07,2.4-.54,3.22.61,2.16,2.89-1.19,2.58-2.57,5.1-4.01,7.55-5.75,9.83-11.46,19.68-17.33,29.45-2.34,3.88-1.01,4.42,2.15,4.46.57,0-.57,3.17-.48,4.22.3,3.35,1.93,4.36,4.71,2.42,1.62-1.14,2.86-2.94,4.01-4.63,1.16-1.71,1.9-3.7,3.06-5.41.22-.32,1.97-.19,2.26.24.73,1.06-.39,3.6,2.05,3.16,1.16-.21,2.08-1.88,3.04-2.95.63-.71,1.09-1.56,1.7-2.3,1.02-1.23,1.99-1.69,3.04.09,1.07,1.84,2.65,1.43,3.77.18,1.76-1.98,3.54-4.03,4.8-6.34,3.33-6.16,6.47-12.44,9.53-18.75,1.11-2.29,2.31-3.99,5.15-3.25,2.38.62,3.41-.48,4.17-2.62,1.07-3.04,2.26-6.09,3.8-8.91,5.09-9.3,10.37-18.5,15.56-27.75,4.17-7.43,8.31-14.89,12.45-22.34,2.23-4.01,3.97-8.35,6.67-12.09,3.54-4.91,10.36-5.94,12.48-5.71,2.12.22,4.39-1.06,5.36-2.05.98-.98,1.21-.86,2.59-1.75,1.38-.89,2.27-1.63,2.94-2.11.66-.48,10.82-4.49,12.96-6.58,4.12-4.03,10.49-6.37,16.18-6.82.54,2.62.68,5.45.7,8.12.05,5.99-.07,11.99-.12,17.98-.04.79-.08,1.58-.12,2.36-1.55,3.85.1,7.33,1.11,10.94.48,1.71.98,3.88.34,5.36-2.1,4.84-1.11,9.76-1,14.65.04,1.94.79,3.91,3.4,3.65,2.15-.22,2.48.92,2.63,2.7.28,3.41.8,6.79,1.22,10.18.4,3.2.72,6.41,1.26,9.58.28,1.68.98,3.01,2.95,3.76,3.21,1.23,3.31,1.76,1.72,4.98-.89,1.82-1.82,3.43.02,5.11,3.05,2.79,3.18,5.81.88,9.13-1.38,2-1.13,3.64,1.48,4.23,2.21.5,2.36,2.31,2.59,3.94.19,1.29-.06,2.64-.16,3.97-.12,1.79.47,3.02,2.45,3.06,1.74.04,2.19-1.08,2.27-2.61.42-8.34.76-16.67,1.37-24.99.26-3.55,1.76-11.95,1.81-12.64.35-3.48,1.4-12.04,1.58-12.85.35-9.13,1.18-32.5,1.69-41.09.52-8.59,3.24-48.89,3.42-54.95-.2-.39,5.03-38.3,6.79-46.9,1.76-8.6,1.65-16.34,1.44-17.23s-3.97-1.92-6.06-2.26c-4.2-.69-8.46-.94-12.7-1.37-2.76-.34-2.2-3.72-2.43-4.32-.23-.6-9.21-3.17-11.01-2.23s-2.23,9.61-2.66,13.62c-1.12,1.92-2.23,3.84-3.35,5.76-.82.75-1.65,1.5-2.47,2.25-.33.34-.66.67-.99,1.01-2.21,1.39-4.42,2.77-6.63,4.16-3.16,3.37-6.31,6.74-9.48,10.11-.21.23-1.83,2.26-2.29,2.87-1.72,2.37-5.75,7.5-5.79,7.91-.63.87-1.27,1.74-1.9,2.6,0,0-1.42.55-1.64.94-2.71,4.93-5.35,9.9-8.01,14.86,0,0-1.91.92-2.93,1.42-.88.68-1.76,1.37-2.64,2.05-.35.12-5.82,7.27-8.73,10.32-.6.63-1.68,2.87-1.67,3.23-3.91,1.62-3.42,7.78-4,8.51-.57.73-3.22,1.96-3.9,3.24-1.99,3.72-4.38,10.31-5.3,11.51-.91,1.2-2.29,2.4-3.16,3.22-.58.23-1.16.46-1.74.7-2.51.26-3.67,3.48-4,4.15-.33.68-1.19.81-1.79,1.21-.43.29-.86.59-1.3.89l.07-.07c-.88.38-1.75.76-2.62,1.15-5.5,3.33-11,6.62-16.45,10.03-.46.29-.9,1.49-.67,1.91,1.92,3.68.72,6.59-2,9.23-.23.22-.4.93-.32.98.44.29,1.06.73,1.45.6,2.34-.77,4.61-1.77,6.96-2.51.82-.26,2.39-.29,2.6.11.45.83.48,2.1.2,3.06-.3,1.04-1.13,1.93-1.75,2.88-2.18,3.32-7.81,10.78-8.23,11.35-3.11,4.28-6.13,8.63-9.26,12.89-1.84,2.51-3.86,3.83-6.73,1.64-2.08-1.59-4.05-3.31-6.07-4.97-.14-1.16-.28-2.32-.43-3.48.81-4.42,1.04-8.84,3.14-13.14,2.94-6.04,4.74-12.65,6.96-19.04,2.43-6.97,4.8-13.96,7.18-20.94,1.22-3.57,2.41-7.15,3.56-10.74,4.02-8.01,8.09-15.99,12.01-24.03,2.07-4.23,3.88-8.58,5.82-12.87.32-.09.45-.31.4-.64,3.54-6.85,7.38-13.58,10.47-20.62,1.14-2.59.98-6.02.52-8.92-.22-1.37-2.48-2.49-3.92-3.6-1.53-1.18-1.51-2.23-.47-3.84,2.11-3.3,1.79-5.33-.47-8.05-1.8-2.17-4.17-2.49-6.7-2.39-3.19.12-6.21.08-9.44-.83-2.66-.76-6.42-1.97-8.8,1.53l-.23.23c-.9,1.61-15.05,26.18-15.83,27.45l-4.01,6.14c-1.02,1.54,1.33,4,.82,5.23-.51,1.23-1.75-.6-3.69,1.35-.13.04-1.72,5.67-3.03,10.83-.11.44,1.6.89,1.48,1.35-.1.37-2.02,1.97-2.11,2.35-.98,3.84-2.07,6.95-3.11,10.95-.19.73.23.85.04,1.55-.18.69-.97.16-1.14.82-.99,3.72-1.86,8.64-2.42,10.22-.16.46.29.91.13,1.37-.22.63-1.05,1.26-1.27,1.9-2.63,7.6-5.13,15.24-7.43,22.95-.21.52-.42,1.04-.63,1.56-1.86,2.5-3.72,4.99-5.59,7.49-1.07.95-2.14,1.9-3.21,2.84,0,.21,0,.42-.02.61.02-.2.02-.4.02-.61-.83.95-1.65,1.89-2.46,2.84-.54.44-1.09.88-1.63,1.32-.37.09-.6.33-.67.71-.43.45-.86.89-1.29,1.34,0-.05,0-.08,0-.13-1.27,1.28-2.55,2.55-3.82,3.83.3-.01.59-.04.87-.07-.28.04-.57.06-.87.07-.52.46-1.05.93-1.57,1.39-.64.67-1.28,1.34-1.91,2-.34.13-2.02,1.72-2.75,2.21-.34.17-.71.29-1,.51-8.45,6.38-16.89,12.76-25.33,19.14-.67.22-.66.27-2.01.67-1.35.4-5.22-.16-5.35-1.81s1.27-11.1,2.75-16.65c2.98-11.18,6.91-21.88,12.18-32.13,2.04-3.98,4.04-9.43,5.81-12.09s5.31-7.4,6.58-9.94c1.26-2.54,1.94-7.35,3.64-10.64,3.1-6.04,6.63-11.87,10.26-17.62,2.36-3.73,4.34-7.37,4.8-11.95.3-3.08,1.57-6.16,2.28-7.21.71-1.05,2.5-2.58,2.85-3.26,2.31-4.52,4.45-9.13,6.65-13.7,0,0,4.56-7.32,6.33-11.21,1.79-3.95,1.61-4.04-2.84-6.09M519.7,237.49s-.01.09-.02.13c0-.04,0-.08.02-.13ZM554.97,147.58l.19.26-.18-.23s0-.02,0-.03h0ZM669.15,166.67c-1.08,2.92-2.08,5.58-1.81,8.73.12,1.44-.37,2.97-.75,4.42-.5,1.88-1.71,2.83-3.8,2.64-5.48-.5-9.28,2.49-12.71,6.24-.75.82-1.63,1.71-2.63,2.09-2.09.78-4.3,1.23-6.46,1.82.46-1.94.7-3.97,1.45-5.79,1.06-2.6,2.17-5.28,3.8-7.53,6.13-8.41,12.47-16.66,18.79-24.92,2.79-3.65,2.31-.05,3.63.26.37.09,1.39-1.74,1.75-1.63.47.15.61.62.82,1.01.2.36.35.75.46,1.14.27.94.35,1.93.3,2.91-.1,1.98-.86,3.81-1.6,5.62-.42,1-.87,1.99-1.24,2.99Z" style="fill:#f50005;"/><path d="M807.81,226.75c1.73.57,5.7,1.61,8.57,2.33,3.57.9,6.7,2.39,9.23,5.23,3.26,3.66,6.78,7.08,10.17,10.64.76.8,1.63,1.62,2.07,2.6,2.88,6.53,6.53,12.22,13.81,14.66,1.53.51,2.78,1.9,4.11,2.94,1,.79,1.84,1.81,2.91,2.49,4.45,2.88,9.04,5.54,13.41,8.54,3.1,2.12,5.92,4.66,8.87,7,.41.31.81.62,1.21.93,2.65,2.34,5.3,4.68,7.96,7.02,15.73,15.7,30.87,32.07,50.4,43.35,1.52.94,3.05,1.87,4.58,2.81,1.06.63,2.1,1.26,3.15,1.89.89.67,1.77,1.33,2.65,2,4.55,3.41,9.2,6.7,13.61,10.27,7.38,5.97,14.58,12.15,21.91,18.17,2.2,1.81,23.17,15.95,25.51,17.57.22.16,6.45,1.85,1.54-2.31-3.16-2.68-18.15-11.81-18.3-11.94-4.29-3.71-9.81-6.73-14.05-10.5-5.67-5.03-11.24-10.16-16.84-15.26-6.69-6.1-12.36-13.41-20.79-17.46-.98-.47-1.94-1.35-2.47-2.29-3.98-7.14-10.4-12.03-16.27-17.33-4.03-3.65-9.12-6.11-13.49-9.42-5.58-4.23-10.92-8.8-16.35-13.21-.49-.51-.98-1.03-1.48-1.54-2.42-2.21-4.84-4.42-7.26-6.62-4.25-3.13-8.46-6.33-12.76-9.38-1.84-1.3-3.92-2.27-5.83-3.48-.64-.41-2.09-1.1-.37-1.91,2.76-1.29,1.07-2.04-.19-3-7.68-5.87-15.17-11.89-21.59-19.24-2.39-2.75-6.07-4.37-9.14-6.53-1.06-.75-2.22-1.46-3.07-2.42-4.25-4.79-6.66-11.08-12.17-14.86-.55-.38-.86-1.26-1.06-1.98-.18-.63-.05-1.36-.06-2.04.68.07,1.6-.13,2,.24,2,1.76,3.8,3.72,5.77,5.5,1.09.98,2.28,2.33,3.57,2.52,2.51.36,4.16,1.13,5.13,3.66.4,1.04,2,1.65,3.1,2.39,3.14,2.12,6.39,4.08,9.42,6.34,1.71,1.28,2.99,2.96,5.45,1.43.48-.3,1.85.17,2.36.71,6.17,6.68,12.23,13.46,18.38,20.15,2.78,3.01,5.05,6.55,9.04,8.36,2.15.98,4.29,2.31,5.95,3.96,2.95,2.93,5.72,6.09,8.25,9.39,2.89,3.78,6.42,6.39,11.05,7.5,1.22.9,2.46,1.79,3.69,2.69,1.66,1.24,3.32,2.49,4.97,3.73,4.39,3.27,8.78,6.54,13.17,9.81.77.65,1.54,1.3,2.31,1.96.43.36.85.72,1.28,1.07.71.56,1.42,1.12,2.13,1.68.37.23.74.45,1.11.68,5.31,4.26,10.68,8.44,15.92,12.79,7.01,5.82,13.86,11.84,20.89,17.62,5.25,4.31,11.16,7.83,15.64,13.08.6.7,1.48,1.46,2.32,1.59,1.39.21,3.35.49,4.18-.26,1.4-1.27.1-2.67-1.04-3.8-1.99-2.01-4.48-3.83-5.67-6.26-1.14-2.32-2.62-3.65-4.81-4.39-8.96-3.04-15.31-9.65-21.98-15.83-5.69-5.28-11.38-10.56-17.06-15.84-1.6-1.5-3.2-3-4.8-4.5-.37-.36-.73-.72-1.1-1.07-.88-.88-1.76-1.77-2.64-2.66-.62-.69-1.24-1.38-1.86-2.08-2.23-2.01-4.33-4.2-6.73-5.97-3.64-2.68-7.71-4.81-11.21-7.64-3.47-2.81-7.05-5.82-9.54-9.44-3.02-4.41-6.07-8.15-11.55-9.28-1.06-.22-1.95-1.14-2.95-1.68-5.29-2.88-8.8-7.71-12.69-12.03-3.78-4.2-7-8.9-10.46-13.39-.43-.42-.86-.85-1.29-1.27-1.9-2.55-3.53-5.39-5.79-7.58-3.1-3.01-6.69-5.52-10.07-8.24-3.09-2.48-3.13-3.78.27-5.94,1.9-1.21,4.22-1.73,6.12-2.93,11.74-7.41,23.02-15.38,31.11-27,2.43-3.98,5.32-7.77,7.2-12,3.44-7.74,3.92-15.88,3.26-24.41-.66-8.57-3.76-15.61-9.14-21.95-.05-.38-2.83-3.09-3.11-3.4-1.07-1.08-3.56-3.19-10.51-8.5-6.95-5.32-16.81-10.58-25.47-11.72-8.66-1.13-20.6.63-25.81,1.1-.87.08-1.98.55-2.49,1.21-2.42,3.15-6.09,3.65-9.48,4.77-2.83-.06-5.65-.25-8.48-.16-2.95.1-5.89.47-8.83.73-1.06.06-3.84.42-4.17.53-1.35.22-6.17,1.37-7.05,1.66-5.17,2.36-19.83,7.87-22.87,9.07-3.03,1.2-4.31,1.17-8.49,2.06-1.78.38-3.85,1.7-5.71,2.84l-.61.45c-2.02,1.03-4.03,2.06-6.05,3.09-1.09.66-2.19,1.32-3.28,1.98-1.93.84-3.87,1.68-5.81,2.52-.72.3-2.35.61-3.36,1.22-1.02.61-3.68,3.17-4,4.51-.31,1.34-.51,2.25-.76,3.38-.26.9-.52,1.8-.79,2.7,0,0-.19.43-.19.44-.6,1.41-2.77,2.03-4.03,2.56-1.74.74-3.95,1.37-5.44,2.55-1.37,1.09-1.62,2.86-2.24,4.4-.48,1.17-.35,3,.17,4.13.51,1.1,2.67,3.15,3.84,3.32,1.34.2,3.37.34,4.01.61s2.6,2.42,2.48,3.33.59,3.22,2.42,3.86c1.32.22,2.64.43,3.95.65,1.33.06,2.66.11,4,.17.32.36.63.72.95,1.08.57,1.75,1.51,2.96,3.61,2.43,1.54,0,4.43.62,7.49-.02s4.56-1.68,6.69-2.81c2.29-1.21,4.39-2.75,6.57-4.15,1.27-1.01,2.72-1.45,2.6.78-.24,4.55-1.37,8.94-3.89,12.85-.17.41-.34.82-.51,1.23-1.17,6.13-14.83,40.11-16.65,46.95-1.83,6.85-3.6,13.93-4.12,15.15-.12.5-.22.99-.34,1.49-.74,2.34-1.63,4.65-2.15,7.04-.34,1.56-1.22,5.36-.03,4.79,3.74-1.75,1.33,2.28-2.03,4.55-2.01.13-7.51,12.48-8.18,18.89-.41,3.94-3.06,9.71-2.05,11.32.2.33.92,1.01.52,1.18-2.73,1.1-4.67,12.31-4.67,12.31,0,0,.9.49.45.94-.45.45-.51.57-.82.84-.55.54-3.6,6.86-4.16,8.32-.24.42-3.09,6.21-3.44,6.89-1.99,2.8-2.66,9.99-1.92,13.52.5,2.33.98-.44,1.03,1.96.01.57-.14.9-.13,1.45,0,1.13.69,7.71,1.65,8.15,1.79.82,1.92-1.11,2.51-2.19.18-.32.47-.58.7-.87-.11-.41,1.63-2.26,2-2.46.38.12-1.68,5.82-.26,5.44,1.42-.38,5.6-14.42,6.07-15.45.82-1.56,1.64-3.12,2.46-4.68.7-.21,1.41-.42,2.11-.64.73.22,1.45.43,2.16.65.25.38.49.76.74,1.15.02,1.11-.11,2.25.11,3.32.11.55.8.99,1.22,1.48.45-.5.9-.99,1.34-1.49.35-.85.68-1.7,1.05-2.55,3.8-8.98,7.6-17.96,11.39-26.94.82-1.96,1.31-4.06,2.18-6.01.14-.32,3.11-5.04,3.63-4.24.39.61,1.06,1.19,1.12,1.83.1,1.1-.36,2.26-.22,3.35.1.79.71,2.01,1.25,2.11.67.12,1.74-.55,2.24-1.19.81-1.02,1.54-2.23,1.88-3.48.75-2.86,5.59-28.02,11.3-52.57,5.6-24.08,13.26-49.85,14.04-49.85,1.76,0,2.59-.84,2.91-2.42.78-3.44,1.56-6.89,2.34-10.34.41-1.4.81-2.8,1.21-4.2.4-.9.8-1.79,1.2-2.69,1.17-2.16,2.26-4.38,3.54-6.48,1.02-1.68,2.21-2.3,2.98.24.57,1.9,1.84,2.22,2.7.58,1.9-3.65,4-7.38,4.88-11.33.65-2.9,2.01-4.31,4.32-5.39,13.74-6.43,27.21-5.85,40.37,1.64,5.44,3.1,7.77,7.42,6.46,12.62-1.2,4.78-2.98,9.33-6.09,13.35-4.29,5.56-8.35,11.31-12.37,17.07-3.32,4.76-11.53,5.55-15.75,1.45-2.04-1.99-4.13-3.95-6.39-5.67-1.94-1.49-4.66-.92-5.29,1.09-.61,1.93-1.19,4.09.87,5.76,2.08,1.68,4.31,3.24,6.02,5.24.97,1.13,1.6,3.14,1.32,4.54-.2.98-2.14,2.18-3.38,2.28-2.42.2-4.89-.42-7.35-.47-1.24-.03-3.09.02-3.64.77-1.22,1.68-3.13,3.92-3.23,6.09-.14,2.76,6.67,8.74,8.18,9.24Z" style="fill:#f50005;"/><path d="M995.73,388.77c-6.01-3.59-12.11-7.04-18.13-10.61-3.85-2.29-8.12-4.18-11.32-7.19-14.67-13.77-28.93-27.97-43.54-41.79-5.62-5.31-11.43-10.47-19.14-12.88-3.41-1.07-6.64-2.83-9.74-4.64-1.88-1.1-3.86-2.6-4.92-4.42-4.12-7.09-10.87-11.35-16.91-16.4-7.11-5.41-11.42-13.86-19.63-18.1-.65-.34-1.22-.93-1.68-1.53-5.41-7.05-11.21-13.72-17.89-19.64-6.88-6.1-12.62-13.46-20.62-18.35-1.89-1.15-3.34-3.05-4.86-4.72-.17-.19-3.5-3.39-5.63-4.59-2.13-1.2-7.09-2.46-10.68-3.56-4.44-1.37-6.28-.08-6.97,4.66-.25,1.69-.37,3.41-.37,5.12.02,3.54.6,4.08,4.29,4.58,1.49.2,3.42.05,4.34.91,2.29,2.17,4.83,2.09,7.46,1.67,2.63-.42,4.12.63,5.71,2.68,3.01,3.85,6.02,7.96,9.86,10.86,4.92,3.71,8.79,8.31,13.07,12.57,4.96,4.93,9.12,10.64,15.73,13.87,2.47,1.21,4.01,4.32,5.98,6.57,1.98,2.27,3.63,4.97,5.98,6.71,3.79,2.81,8.05,4.98,12.11,7.43,1.47,1.17,2.97,2.3,4.4,3.53,3.01,2.59,6.41,4.88,8.82,7.94,2.09,2.66,4.12,4.43,7.44,5.47,3.36,1.05,6.69,2.93,9.4,5.2,8.46,7.07,16.66,14.45,24.9,21.78,5.67,5.04,10.95,10.54,18.74,12.49,1.69.42,3.14,1.99,4.59,3.17,3.21,2.61,6.35,5.3,9.52,7.95.91.69,1.81,1.38,2.71,2.08.25.29.45.62.74.86,9.09,7.46,19.53,13.09,28.18,21.19,1.64,1.54,5.05.85,6.84,2.51,27.64,25.87,28.23,19.95,29.18,19.51-.52-.73-27.24-22.46-27.94-22.88Z" style="fill:#f50005;"/><path d="M952.43,383.69c-.91-2.73-2.8-3.95-4.7-5.28-2.46-1.73-5.24-2.99-7.84-4.52-3.72-2.19-7.67-4.06-9.25-8.69-.43-1.24-1.96-2.76-3.18-2.96-5.23-.9-8.03-6.49-13.54-6.76-.68-.03-1.29-1.29-1.96-1.95-1.35-1.33-2.82-2.54-4.05-3.97-2.75-3.22-7.45-4.5-8.88-9.1-.2-.65-1.82-1-2.84-1.23-5.47-1.21-9.9-3.89-11.95-9.28-1.48-3.88-4.32-6.53-6.97-9.47-2.24-2.49-4.73-3.62-8.02-3.2-2.71.35-4.76-.46-6.05-3.12-.55-1.13-1.75-1.95-2.66-2.92-1.24-1.43-2.49-2.85-3.73-4.27-.32-.43-.63-.86-.94-1.29-.02-.37-.17-.69-.44-.94-.53-3.29-2.11-5.88-5.08-7.51-4.66-3.87-9.59-7.46-13.92-11.67-5.84-5.69-11.47-11.59-13.4-20.1-.58-2.54-2.64-5.11-4.69-6.87-3.44-2.93-7.24-5.56-11.21-7.71-5.96-3.23-11.74-7.01-18.63-8.19-2.17-.37-4.39-1.24-5.91,1.12-.97,1.52.23,2.57,1.5,3.48.76.54,1.68,1.19,2.53,1.2,4,.05,5.7,2.75,6.73,5.9,1.41,4.31,4.11,6.29,8.63,6.91,3.69.51,7.66,1.85,8.97,5.98,2.29,7.22,7.21,12.33,12.93,16.74,5.29,4.09,9.9,8.73,13.82,14.11.77,1.06,1.5,2.21,2.49,3.01,3.94,3.2,7.97,6.28,11.97,9.4.4.37.8.75,1.21,1.12,1.15,1.15,2.31,2.3,3.46,3.46,3.02,5.53,7.66,8.88,13.79,10.22.79.31,1.59.62,2.39.93,1.37,1.18,2.88,2.23,4.09,3.56,2.14,2.34,3.95,4.96,6.14,7.24,1.56,1.62,3.49,2.89,5.29,4.29,6.14,4.81,12.17,9.76,18.46,14.36,6.41,4.68,13.12,8.95,19.62,13.51,2.94,2.06,5.83,4.25,8.48,6.66,4.48,4.09,8.88,8.2,14.38,10.97,2.24,1.13,4.13,2.96,6.18,4.48.35.04,26.62,17.79,29.13,19.93,1.47,1.26,12.13,8.08,21.84,15.57,6.88,5.32,12.77,11.41,16.83,14.14,18.35,12.35,11.41,3.33,12,3.4-.52-.8-68.04-49.86-68.56-50.66-1.86-1.89-13.71-7.79-14.46-10.03Z" style="fill:#f50005;"/><path d="M752.08,305.18c-1.44,0-2.95,1.04-4.27,1.91-.52.34-.73,1.31-.89,2.04-.48,2.21-.85,4.43-1.31,6.65-.63,3.05-.19,6.44-3.36,8.62-1.43.98-.58,2.4.38,3.43,1.2,1.28,2.61.98,3.38-.26,1.49-2.39,2.84-4.91,3.92-7.51,1.51-3.61,3.57-9.18,4.19-11.44.63-2.26-1.36-3.43-2.05-3.43Z" style="fill:#f50005;"/><path d="M369.87,297.5c8.14,3.38,17.34,4.39,26.42,2.51,3.74-.77,4.6-1.03,10.67-4.59,6.07-3.57,10.21-12.16,11.45-12.61,1.24-.45,5.12-.66,6.31.34.7.59,2.57,3.02,4.92,4.84,2.35,1.82.02,1.65,1.8,4.12,1.78,2.47,4.31-.24,4.36,1,.05,1.23.97,2.22,2.98,2.21,2.02,0,1.59-7.85,1.17-12.39-.42-2.62-1.34-12.78-1.15-15s.81-6.02,1.22-9.04c-.15-3.88,3.26-16.7,3.81-19.47-.25-.38,2.42-7.74,3.98-14.9,1.56-7.15,2.73-15.65,2.81-18.3.15-4.14.93-11.1.47-12.42s-3.02-.77-3.98-.24c-.96.54-.5.89-.75,1.33l-.05.19c-.19-.03-.35.02-.48.2-3.56.63-5.41-2.93-6.81-3.46s-2.42-.64-4.13-.37c-1.71.27-8.05,6.6-11.09,8.02s-13.27,5.99-16.8,5.47c-.3.29-.65.39-1.06.3-1.37,1.41-2.62,3.9-4.12,4.06-7.36.78-11.56,6.24-16.71,10.33-.9,1.17-2.18,2.21-2.64,3.54-1.38,3.96-2.88,6.51-6.87,8.61-.22.12-.41.73-.3.9.17.26.61.46.95.47,2.53.08,5.52-2.07,5.52-2.07,0,0,12.42-5.33,18.6-8.06,2.67-1.18,5.19-1.86,8.11-.45,1.12.54,2.83-.17,4.27-.31.57-.33,1.13-.65,1.7-.98.58-.15,1.16-.3,1.74-.45l1.08-.11c.79.13,1.58.26,2.36.39-1.43,4.29-2.1,11.86-2.3,13.22-.21,1.36-.71,2.12-1.02,3.21-.45,1.61-.96,3.23-1.21,4.89-.8,5.36-1.86,10.73-2.08,16.12-.14,3.34,1.85,8.48,2.9,9.7,1.04,1.22,2.21,2.93.4,4.43-1.81,1.5-3.21,2.89-4.82,4.34-2.01.75-5.96,3.8-11.78,4.71-5.82.9-10.84.67-19.07-3-8.23-3.67-14.92-10.35-19.46-14.46-4.54-4.11-11.18-19.88-11.65-27.02-.47-7.14.21-14.38.43-17.28.22-2.9,1.84-12.65,4.44-19.38,2.61-6.73,10.18-16.07,11.23-17.26,3.93-3.8,7.85-7.59,11.78-11.39,4.46-3.39,11.51-9.5,21.58-15.09,2.28-1.12,14.9-8.32,24.47-9.08,2.79-.22,5.51-1.32,8.17-2.27,2.42-.86,3.81-2.57,2.67-5.29-.79-1.88-.76-3.7,1.34-4.22,2.65-.66.26-4.75-.99-4.46-1.35.32-2.7.9-4.63-.35-2.11-1.37-3.88-4.1-4.59-7.6-.29-1.45,1.97-1.37.54-3.3-1.43-1.92-4.21-.73-5.4-1.7-.4-.14-.79-.28-1.19-.42-1.48-.19-2.96-.37-4.44-.56-.23-.2-.46-.41-.69-.61-1.49-1.76-3.21-1.96-5.54-1.77-6.9.57-13.23,3.21-19.84,4.79-2.36.83-4.73,1.66-7.09,2.49-1.03.81-2.02,1.66-3.09,2.41-2.78,1.95-5.59,3.85-8.38,5.76-.34.36-.69.72-1.03,1.08l-.11.14c-.88,1.13-1.77,2.26-2.65,3.39-.27.35-.53.7-.79,1.05-.76.75-1.53,1.49-2.29,2.24-.41.37-.82.73-1.22,1.1-.69.44-1.38.87-2.08,1.31l-.07.07c-.44.74-.88,1.48-1.31,2.22l-.07.45c-.6.62-1.2,1.24-1.8,1.87-.53.61-1.05,1.23-1.58,1.84-.39.48-.79.97-1.18,1.45-.36.32-.73.64-1.09.96-.66.86-1.32,1.73-1.98,2.59l-.13.15c-.86,1.04-1.72,2.07-2.58,3.11-.29.48-.59.96-.88,1.44-1.36,2.26-2.72,4.52-4.07,6.78-.38.16-.59.44-.62.86-.37.86-.73,1.72-1.1,2.59-.39.68-.78,1.37-1.16,2.05h0c-3.87,2.99-5.94,7.09-7.2,11.69-.26.33-.53.66-.79.99-.45,1.2-.91,2.4-1.36,3.6-.69,1.86-1.39,3.72-2.08,5.57-4.21,7.61-5.28,16.07-5.84,24.46-.73,10.98-.59,22.02,2.05,32.84.88,3.59,7.02,17.41,10.07,22.03,3.05,4.6,11.22,13.69,16.43,17.26,5.21,3.57,9.95,6.28,18.09,9.67Z" style="fill:#f50005;"/><path d="M1021.76,368.24c-5.18-3.83-10.44-7.57-15.69-11.31-1.08-.77-1.84-3.06-3.45-1.57-.55.51.2,2.79.78,4.07.44.97,1.47,1.75,2.39,2.41,5.54,4.02,11.06,8.07,16.72,11.9,1.51,1.01,3.49,1.32,5.29,1.83.31.09.79-.45,1.32-.77-.54-.63-.84-1.1-1.26-1.45-2.01-1.73-3.98-3.53-6.11-5.11Z" style="fill:#f50005;"/><path d="M1058.72,391.43c-.3-.36-7.74-4.38-8.09-4.62-1.56-1.1-2.53-.68-4.09-1.8-2.98-2.15-5.81-4.48-8.69-6.74-1.51-1.19-3.81-2.08-4.06.27-.16,1.52.21,3.37,1.63,4.18.51.29,1.02.59,1.53.88,2.92,1.51,5.82,3.03,8.74,4.53,1.28.66,20.15,13.89,23.23,13.32,3.09-.58.39-4.04.39-4.04,0,0-10.08-5.36-10.58-5.97Z" style="fill:#f50005;"/><path d="M1020.78,392.78s13.29,9.05,18.3,11.36c5.01,2.31,7.9,4.24,6.16,1.54-1.73-2.7,0-2.12-5.59-5.39-5.58-3.27-8.66-4.43-11.16-6.93-2.51-2.5-7.51-4.62-7.71-2.89-.19,1.73,0,2.31,0,2.31Z" style="fill:#f50005;"/><path d="M1031.95,422.25c5.58,3.27,8.28,5.77,6.36.77-1.92-5.01-5.01-4.04-9.25-6.16-4.24-2.12-4.4-.04-3.44,1.13l6.33,4.27Z" style="fill:#f50005;"/></svg>