<?xml version="1.0" encoding="utf-8"?>
<!-- Generator: Adobe Illustrator 29.2.1, SVG Export Plug-In . SVG Version: 9.03 Build 55982)  -->
<svg version="1.1" baseProfile="tiny" id="Layer_2_00000073710678308425781790000018332175232284527008_"
	 xmlns="http://www.w3.org/2000/svg" xmlns:xlink="http://www.w3.org/1999/xlink" x="0px" y="0px" viewBox="0 0 1606 447.5"
	 overflow="visible" xml:space="preserve">
<g>
	<polygon fill="#FFBC00" points="636.4,119.7 703.2,174.3 775.7,127.7 744.4,208 811.1,262.5 725.1,257.6 693.8,338 671.9,254.6 
		585.9,249.7 658.3,203.1 	"/>
	<g>
		<path fill="#EAEAEA" d="M238.8,82v59.7h-94.6l59.7,59.7h-69.5v119.4l-59.7,59.7V201.4h44.8L0,82H238.8z"/>
		<path fill="#EAEAEA" d="M417.9,320.8h-59.7v-49.8l-49.8,49.8h-69.5V141.7h144.8l-59.7,59.7h-25.4v44.8l104.5-104.5h14.9V320.8z"/>
		<path fill="#EAEAEA" d="M432.8,141.7h59.7v89.5l119.4-119.4v84.5L432.8,375.4V141.7z"/>
		<path fill="#EAEAEA" d="M999.9,126.8V67.1h59.7v59.7H999.9z M1059.6,141.7v179.1h-59.7V141.7H1059.6z"/>
		<path fill="#EAEAEA" d="M1134.2,261.1l59.7,59.7h-119.4V141.7l59.7-59.7v59.7h59.7v59.7h-59.7V261.1z"/>
		<path fill="#EAEAEA" d="M1358,141.7v59.7h-64.8l59.7,59.7h-84.5l-119.4-119.4H1358z M1387.9,380.5h-84.5L1184,261.1h84.5
			L1387.9,380.5z"/>
		<path fill="#EAEAEA" d="M1548.9,141.7v59.7h-62.2L1606,320.8h-206.4v-59.7h62.2l-119.4-119.4H1548.9z"/>
		<path fill="#EAEAEA" d="M880.5,276v44.8h-59.7V141.7h59.7v49.8L984.9,87.1v84.5L880.5,276z"/>
	</g>
</g>
</svg>
