<?xml version="1.0" encoding="UTF-8"?><svg id="Layer_2" xmlns="http://www.w3.org/2000/svg" viewBox="0 0 1251.28 447.5"><polygon points="1228.05 287.65 1223.03 287.65 1223.03 285.92 1234.99 285.92 1234.99 287.65 1230.01 287.65 1230.01 301.16 1228.05 301.16 1228.05 287.65" style="fill:#666;"/><polygon points="1243.1 301.16 1238.95 288.78 1238.95 301.16 1236.94 301.16 1236.94 285.92 1239.71 285.92 1244.11 298.87 1248.5 285.92 1251.28 285.92 1251.28 301.16 1249.28 301.16 1249.28 288.78 1245.11 301.16 1243.1 301.16" style="fill:#666;"/><path d="M275.43,156.72c0-5.29-1.01-12.15-3.34-15.03,15.32,0,48.43.1,62.62.1,32.65,0,81.91,18.12,81.91,79.22,0,45.34-34.77,79.12-81.91,79.12-10.34,0-49.81-.13-63.82-.13,2.87-5.3,4.55-12.49,4.55-18.17v-125.11h0ZM298.91,284.6c15.07,1.96,28.98,2.56,41.57.76,12.18-1.74,53.1-10.56,52.84-64.88-.24-51.48-32.04-63.26-56.54-64.69-12.79-.75-25.13-.27-37.87,1.94v126.88h0Z" style="fill:#666;"/><path d="M430.06,190.34l23.46-3.66v20.65c6.02-14.87,24.74-26.82,51.34-16.46l-6.24,16.33c-24.35-11.56-45.11-1.42-45.11,25.62v55.8c0,2.66.58,8.02,2.16,11.45h-24.37c2.46-3.03,3.6-8.8,3.6-11.45v-80.49c0-5.84-1.2-14.88-4.86-17.79h0Z" style="fill:#666;"/><path d="M1171.71,201.53v71.27c0,22.37,15.42,28.36,26.85,28.36,4.83.24,11.67-.89,16.45-1.95l2.94-13.81c-5.57,2.13-12.04,2.63-15.93,2.63-7.16,0-12.34-4.75-12.34-12.19,0-6.67-.17-72.09,0-74.18h-.07c.95,0,15.81-.05,17.31,0,4.87.17,8.61.47,11.84,1.76l.02-13.01s-28.53-.04-29.09-.04l.12-33.36-21.62,5.97c2.98,2.79,3.95,10.95,3.95,16.33,0,0-.02,9.97-.02,11.17-.97,0-11.95.05-13.77.05v10.99c1.92,0,13.36,0,13.36,0h0Z" style="fill:#666;"/><path d="M1078.27,276.9c9.29,6.64,23.88,12.53,34.57,12.53,14.84,0,25.46-7.22,25.46-20.81,0-25.08-57.18-20.92-57.18-52.74,0-21.52,19.24-29.61,37.57-29.61,5.9,0,19.35,1.28,27.9,4.59l-.07,14.7c-7.6-6.49-19.19-8.06-26.84-8.06-12.13,0-21.24,6.02-21.24,17.82,0,17.33,57.13,16.33,57.13,51.9,0,23.01-19.93,33.74-41.87,33.74-10.69,0-21.84-1.89-31.11-4.55l-4.33-19.51h0Z" style="fill:#666;"/><path d="M733.11,201.76c0-1.3.05-12.95.05-14.44l-23.75,3.67c2.86,3,5.06,12.36,5.06,19.04v77.81c0,2.66-1.14,9.1-3.61,12.13h25.89c-2.46-3.03-3.6-9.48-3.6-12.13v-58.55c0-21.42,13.25-28.92,26.44-28.92,11.94,0,22.73,5.17,22.73,28.92v58.55c0,2.66-1.14,9.1-3.6,12.13h25.11c-2.47-3.03-3.6-9.48-3.6-12.13v-58.55c0-23.75,14.67-28.92,26.64-28.92s24.41,7.49,24.41,28.92v58.55c0,2.66-1.13,9.1-3.61,12.13h24.19c-2.48-3.03-3.6-9.48-3.6-12.13v-69.67c0-11.87-12.12-30.9-40.41-30.9-16.46,0-25.97,7.32-33.19,13.62-6.14-7.16-16.13-13.88-32.18-13.88-15.64,0-24.87,9.16-29.39,14.74h0Z" style="fill:#666;"/><path d="M677.11,238.26c-3.39,3.19-10.49,5.67-17.81,6.63-19.25,2.52-35.93,5.72-35.93,24.47,0,11.12,12.13,19.88,21.73,19.88,25.44,0,32.01-18.35,32.01-32.82v-18.17h0ZM617.01,192.38c9.71-3.89,25.38-5.68,35.2-5.68,25.09,0,41.77,12.54,41.77,41.64v48.28c0,8.94.14,17.41,3.32,23.36h-20.17l-.73-12.7c-7.63,9.86-16.76,14.27-32.25,14.27-30.56,0-37.24-20.88-37.24-30.91,0-35.81,34.08-36.22,48.89-38.34,8.19-1.16,18.72-3.47,20.31-11.15,2.61-12.7-6.46-22.22-25.02-22.22-13.62,0-24.77,4.14-34.09,9.72v-16.27h0ZM1050.54,238.26c-3.39,3.19-10.49,5.67-17.82,6.63-19.25,2.52-35.92,5.72-35.92,24.47,0,11.12,12.12,19.88,21.72,19.88,25.44,0,32.01-18.35,32.01-32.82v-18.17h0ZM990.44,192.38c9.71-3.89,25.39-5.68,35.21-5.68,25.08,0,41.75,12.54,41.75,41.64v48.28c0,8.94-1.95,17.23,3.31,23.36h-20.16l-.73-12.7c-7.64,9.86-16.75,14.27-32.24,14.27-30.55,0-37.23-20.88-37.23-30.91,0-35.81,34.08-36.22,48.88-38.34,8.19-1.16,18.74-3.47,20.31-11.15,2.61-12.7-6.46-22.22-25.02-22.22-13.61,0-24.77,4.14-34.09,9.72v-16.26h0Z" style="fill:#666;"/><path d="M968.97,207.18c-7.57-4.42-19.51-7.92-27.84-7.92-29.25,0-42.65,17.98-42.65,43.89s13.11,45.32,41.71,45.32c9.8,0,23.15-4.41,33.51-10.77l-4.21,18.88c-10.54,3.14-19.43,4.63-31.19,4.63-40.2,0-59.04-28.51-59.04-58.18,0-32.79,25.28-55.85,59.48-55.85,14.95,0,25.86,3.67,30.27,4.92l-.04,15.08h0Z" style="fill:#666;"/><path d="M518.96,244.53c.02-2.71.38-5.3.68-7.8h77.79c0-26.74-13.37-49.68-45.06-49.68s-52.4,25.71-52.4,58.51c0,29.66,21.73,56.16,58.96,56.16,11.77,0,21.61-2.9,32.23-6.62l3.74-18.96c-9.09,7.48-23.77,11.9-37.02,11.9-23.82,0-39.01-17.25-38.91-43.52h0ZM522.1,224.87c2.52-13.01,14.56-26.26,28.97-26.26,22.01,0,28.38,17.18,28.38,26.26,0,0-57.35.04-57.35,0h0Z" style="fill:#666;"/><path d="M148.53,117.05c8.72,1.31,17.64,4.36,22.28,5.78,9.36,2.86,24.56,11.76,29.93,16.02,2.54,2.02,7.88,7.3,9.95,9.96,2.01,2.59,5.86,8.2,8.31,11.66,3.91,5.71,8.51,14.21,12.41,22.03,4.36,8.74,4.66,11.27,5.98,18.58l2.88,12.88c.27,2.23.5,10.4-4.3,11.54-4.79,1.14-9.23-1.06-11.32-4.3-2.89-4.47-2.49-10.82-5.76-18.09-2.55-5.88-3.66-14.42-7.74-20.56l-3.19-5.4c-5.65-8.7-11.54-15.61-15.05-20.11-3.1-3.79-8.88-8.93-14.35-12.59-5.07-3.07-13.25-6.58-19.16-8.38-1.88-.61-9.94-2.98-14.94-3.65-6.8-.76-11.26-1.84-17.72-2.29-7.98-.56-11.79-1.27-22.14-.06-3.92,1.06-10.12,1.49-15.7,3.62-4.51,1.84-10.78,4.81-16.93,8.42-6.62,3.63-16.65,11.04-23.31,17.37-6.71,7.17-10.07,11.02-14.69,20.11-2.05,4.5-6.01,11.45-7.61,16.36-1.09,4.99-3.17,14.28-2.83,18.8.16,8.09-.55,9.76.06,16.37.02,5.95,1.98,10.08,2.79,14.95.69,3.36,3.93,15,5.92,17.71,9.07,19.56,21.26,28.03,34.84,34.14,3.83,1.95,15.8,5.15,19.26,6.07,5.91,1.07,13.68,1.78,21.17,1.92,7.87.15,18.73-.91,25.31-3.34,7.13-2.62,15.37-6.35,15.28-6.24,3.3-1.83,8.35-4.81,9.92-6.11,3.04-1.94,4.87-2.7,6.67-4.57,2.6-2.27,4.17-3.58,6.14-6.39,1.09-1.58,2.84-4.01,4.52-6.16,1.82-2.99,2.87-6.14,4.65-10.03,2.13-5.76,1.8-5.48,2.2-11.6.38-1.77-.04-7.73-.36-8.74-.96-5.5-.62-10.35-1.88-15.69-1.69-7.22-3.11-12.63-5.28-19.55-2.04-7.8-8.03-15.02-12.53-20.19-2.79-3.2-11.43-10.76-23.42-15.48-3.38-1.14-8.9-2.42-12.41-3.07-7.49-.78-8.71-.28-15.88.24-2.47.43-8.2,1.6-10.31,2.34-6.16,2.16-8.43,3.54-14.73,7.4-2.93,1.7-5.14,3.01-8.14,5.81-2.39,2.21-4.1,5.98-6.04,8.18-2.66,3.61-5.61,8.43-7.59,13.63-2.15,5.17-2.84,12.45-2.51,17.13,0,3.56.97,10.1,1.35,11.53.39,1.43,1.35,5.87,1.56,6.76.21.89,2.52,5.58,2.84,6.27,1.3,2.77,3.79,6.74,7.98,10.81,3.1,3.38,9.08,6.7,13.57,7.99,4.02,2.21,10.79,2.58,14.55,2.59,1.84-.12,6.56-.4,9.02-.99,4.99-1.2,5.91-1.23,11.05-3.46,4.61-2.14,7.74-2.91,10.96-5.28,0,0,4.41-3.45,6.41-5.99,1.06-1.33,2.87-7.69,2.55-11.63-.15-5.39.64-8.45-.47-12.88-1.1-4.44-2.98-9.58-5.01-12.74-2.06-3.21-6.5-6.33-11.54-8.83-2.83-1.4-9.52-2.69-12.36-3.02-5.39-.64-9.9,1.81-12.64,4.61-2.38,2.72-7.08,8.36-5.21,14.19,1.69,5.27,3.74,10.9,11.65,10.48,5.43,1.13,11.71-.5,13.81.45,3.1,1.76,4.3,5.65,3.17,8.37-.79,5.24-5.81,5.86-11.15,6.27-4.79.8-16.95-1.54-19.62-3.54-1.79-1.06-4.54-3.62-6.47-5.35-1.39-1.25-2.96-4.02-4.04-6.01-1.31-2.45-1.98-4.25-2.32-5.84-.41-1.89-1.23-5.51-.92-9.12.22-2.43.87-3.48,1.51-7.04,1.29-4.04,2.9-7.12,5.49-10.62,3.37-3.42,7.64-7.49,11.82-9.38,3.68-1.95,10.14-2.66,15.97-2.32,4.74.45,10.33,1.03,14.04,2.27,6.34,2.26,8.15,2.72,13.35,6,4.39,2.72,8.82,7.73,11.29,11.87,5.25,10.74,8.26,22.69,6.07,38.79-.18,2.72-1.02,5.37-2.72,8.97-1.57,3.32-4.31,7.36-8.43,10.4-1.66,1.54-4.28,3.43-6.41,4.53-3.02,1.83-5.05,2.79-8.2,4.37-2.77,1.31-6,2.79-10.21,3.96-4.56,1.8-8.06,1.88-13.8,2.73-5.64,1.42-21.1.41-30.3-3.65-6.28-2.64-13.32-7.3-18.69-12.97-2.98-3.12-5.89-8.78-6.74-9.94-4.26-8.19-5.1-15.89-5.78-17.52-.93-2.2-1.39-7.13-2.01-10.5-.7-3.79-.27-19.65,3.55-29.82,2.16-4.05,3.42-7.67,4.87-9.56,2.62-3.73,3.89-6.05,6.11-8.69,3.36-4.07,5.8-7.39,9.07-9.74,8.33-6.77,15.29-10.35,24.71-14.82,11.7-4.76,15.21-3.78,26.29-3.6,4.98.04,12.23,1.61,15.8,2.26,6.62.88,10.41,2.48,14.88,3.72,4.79,1.34,7.55,3.47,11.48,5.84,3.23,2.09,7.04,4.95,9.55,7.27,6.43,4.72,9.53,9.67,13.47,15.76.72,1.02,5.39,10.99,6.14,13.77.35,1.39,1.4,5.38,2.09,7.71.87,3.7,1.3,6.98,2.28,11.16.87,4.3,2.36,12.42,3,20.01,1.09,6.51-.65,19.81-1.67,23.89-2.27,7.61-6.26,16.9-14.12,25.84-3.34,3.96-6.89,7.03-10.99,10.36-3.14,2.61-5.83,4.14-10.68,7.04-6.58,3.93-11.59,6.44-20.82,10.05-3.76,1.21-8.49,2.79-13.6,3.85-9.89.9-20.05,1.77-31.13.45-11.09-1.32-22.2-4.45-28.76-6.46-3.62-1.36-10.64-4.3-13.57-5.89-1.92-.97-8.33-5.36-9.42-6.41-4.39-2.72-14.24-11.97-20.59-20.6-1.39-2.67-6.4-10.67-7.48-14.17-2.89-5.93-4.9-13.1-6.08-16.16-1.25-7.15-3.36-11.75-4.18-18.92.09-1.69-.34-5.66-.73-7.86.56-4.91-.19-9.53.79-14.88.86-4.51,1.99-6.39,2.26-10.47.27-1.74,2.51-6.99,3.11-9.33,1.81-3.85,2.26-7.01,4.63-11.31,3.4-6.7,6.97-14.4,12.44-21.13,1.56-2.09,6-7.09,7.51-8.83,3.57-3.57,5.66-4.13,9.71-7.71.42-.26,3.1-3.31,5.9-4.36,4.64-3.59,8.65-4.9,13.07-8.16,8.85-4.41,12.08-5.9,20.87-9.56,5.08-1.81,12.16-2.81,14.71-3.8,4.85-.3,9.78-1.85,14.88-1.54,5.73-.05,11.5.36,17.26.88,3.88.22,8.95.41,15.82,1.91h0Z" style="fill:#cf3311;"/></svg>