<?xml version="1.0" encoding="UTF-8"?><svg id="Layer_2" xmlns="http://www.w3.org/2000/svg" viewBox="0 0 1694.22 447.5"><path id="path10" d="M884.71,155.73l13.01-20.84h-198.03c-15.2.23-29.35,4.49-42.25,12.78l-15.2,11.17c-6.68-8.06-13.24-13.7-19.69-17.5-8.06-4.49-17.04-6.44-27.28-6.44h-335.39l-10.94,33.39-5.4-33.38h-73.35l-2.65,6.21-6.91-2.42c-38.69-13.24-75.87-9.21-110.99,12.55-17.85,11.4-31.32,25.68-39.61,43.17C1.51,211.91-1.37,231.37.59,253.47c1.38,13.24,5.98,25.56,14.05,36.73,8.06,11.17,18.3,20.15,31.08,26.59,18.54,9.67,38.68,12.55,59.75,9.21h65.28l16.35-36.27,5.99,36.27,392.38-.46c8.53,0,17.04-2.07,25.68-5.87,8.52-3.8,15.88-9.21,22.57-15.89,10.94,11.63,23.95,19.46,39.15,22.57,20.61,4.95,40.53,1.38,59.29-10.48l2.42-1.84-1.84,11.86h79.9l1.96-13.82c4.72-.69,8.52-3.11,11.86-7.14h217.26c33.39,0,57.91-8.52,72.88-25.67l16.12,25.67h232.46v-32.69l41.79,32.7h287.26v-148.99h-311.21v32.24l-41.22-32.24h-165.56l-20.38,38.69-22.57-38.92h-248.58Z" style="fill:#1f00cc;"/><path id="path12" d="M935.48,180.6h-24.86l-58.6,98.67h69.77v-21.87h-28.44l28.44-51,41.22,73h31.78v-.23h49.62c42.95,0,64.48-16.58,64.48-49.39,0-5.64-.69-10.94-2.19-15.89l39.61,65.28h19l56.99-98.44h-30.17l-35.58,64.46-37.53-64.47h-32.47l8.98,14.74c-10.47-9.9-25.56-14.74-45.25-14.74h-65.28v81.86l-49.51-81.97h0ZM1013.08,202.93h37.42c19.45,0,29.35,8.52,29.35,25.56,0,10.25-3.11,17.73-8.98,21.64-5.64,4.03-16.35,5.99-31.32,5.99h-26.36v-53.19h-.12Z" style="fill:#fff;"/><polygon id="polygon14" points="1264.3 180.6 1239.32 180.6 1180.94 279.27 1210.42 279.27 1210.42 279.04 1250.72 279.04 1250.72 257.04 1222.51 257.04 1250.49 206.27 1291.71 279.27 1323.83 279.27 1323.83 279.04 1340.18 279.04 1340.18 219.51 1414.67 279.04 1434.01 279.04 1434.01 180.6 1408.22 180.6 1408.22 239.43 1333.04 180.6 1313.81 180.6 1313.81 262.45 1264.3 180.6" style="fill:#fff;"/><path id="path16" d="M1448.75,186.12c-4.03,3.57-6.1,10.02-6.1,19.23v48.81c0,9.44,2.07,15.89,5.98,19.46,3.8,3.57,10.71,5.41,20.84,5.41h57.91c10.02,0,17.27-1.84,21.07-5.41,3.8-3.57,5.99-10.02,5.99-19.46v-13.7l-28.44-.46v15.2h-55.04v-51.7h55.04v13.47h28.44v-11.63c0-9.67-2.19-16.12-5.99-19.23-3.8-3.8-10.47-5.64-21.07-5.64h-57.91c-10.02.12-16.93,1.85-20.73,5.64h0Z" style="fill:#fff;"/><polygon id="polygon18" points="1592.32 217.09 1592.32 202.93 1669.11 202.93 1669.11 180.6 1563.88 180.6 1563.88 279.04 1670.38 279.04 1670.38 256.24 1592.32 256.24 1592.32 238.74 1637.34 238.74 1637.34 217.09 1592.32 217.09" style="fill:#fff;"/><path id="path20" d="M151.76,162.06c-30.85-11.16-60.68-7.6-89.23,10.02-28.21,17.27-40.52,43.64-37.19,78.06.92,10.02,4.72,19.23,11.17,27.29,6.44,8.06,14.74,13.81,24.64,18.3,10.01,4.49,20.61,6.22,31.78,5.64,12.32-.69,23.49-4.26,34.42-10.25l1.15-.69-4.26,9.44h29.93l19.23-41.79h33.16l7.37,41.79h49.05l25.1-78.29,16.12,78.29h19.45l37.53-86.81,3.8,86.81h28.67l-5.87-140.23h-34.89l-32.7,76.68-14.05-76.68h-28.67l-36.95,113.41-19-113.41h-35.34l-54.12,122.39,7.83-51.24h-53.43l-4.03,26.37h22.34l-2.19,14.04-23.49,1.61c-9.44-2.42-16.12-7.37-20.61-15.2-3.8-7.37-5.64-14.97-4.72-23.48,1.15-11.86,6.91-22.57,17.84-32.24,9.9-8.75,22.57-13.7,37.77-15.66,14.51-2.19,27.29-.69,38,4.03l4.37-28.21h0ZM202.31,230.68h-17.73l12.32-27.05,5.41,27.05Z" style="fill:#fff;"/><polygon id="polygon22" points="498.32 159.53 418.52 159.53 396.08 299.88 476.44 299.88 481.62 270.06 430.96 270.06 434.99 244.96 478.86 244.96 483.58 214.79 439.25 214.79 443.05 189.7 493.59 189.7 498.32 159.53" style="fill:#fff;"/><polygon id="polygon24" points="851.55 159.53 818.04 159.53 789.38 205.46 771.53 159.53 738.37 159.53 772.68 233.56 761.86 299.88 790.99 299.88 799.74 241.39 851.55 159.53" style="fill:#fff;"/><path id="path26" d="M710.85,160.91c-16.35-3.8-31.32,0-45.82,11.17-14.5,10.71-23.95,26.13-28.9,45.59-4.26,19.23-2.18,37.42,5.65,53.42,8.29,16.58,20.15,26.6,36.49,30.17,16.12,3.8,31.09,0,45.6-10.94,14.51-11.17,24.18-26.59,28.67-46.05,4.49-19.23,2.42-37.19-5.64-53.42-8.06-16.35-20.15-26.37-36.04-29.94h0ZM708.43,188.89c7.83,3.11,12.78,10.25,15.43,20.84,2.65,10.71,2.07,21.87-1.84,33.73-3.8,11.63-10.01,20.38-18.08,25.91-8.29,5.99-16.12,7.14-23.49,3.8-7.83-3.11-13.01-10.25-15.66-20.84-2.88-10.94-1.84-22.11,1.95-33.73,3.8-11.4,10.02-20.38,18.08-26.37,7.94-5.64,16.01-6.91,23.6-3.34h0Z" style="fill:#fff;"/><path id="path28" d="M612.64,165.86c-5.64-3.57-11.17-5.41-16.57-5.41h-53.65l-22.11,139.43h64.48c6.91,0,14.05-2.19,21.53-6.67,7.37-4.49,13.01-10.02,17.5-16.81,4.72-7.83,6.44-15.43,5.65-23.48-.92-8.75-5.65-17.04-13.82-24.87,16.35-16.81,20.15-32.7,11.63-47.9-3.69-5.65-8.29-10.49-14.63-14.28ZM562.79,215.94l4.49-25.9h18.77c4.72,0,8.29,1.38,10.71,4.03,2.07,2.42,2.88,5.41,2.42,8.98-.46,3.57-2.18,6.45-4.95,8.98-3.11,2.65-6.91,4.03-11.4,4.03h-20.04l32.47,33.16c2.65,2.65,4.04,6.1,3.8,9.9-.23,3.8-2.07,6.91-5.41,9.67-3.33,2.65-8.06,4.26-14.5,4.26h-25.33l4.49-28.21h24.18c5.41,0,9.67,1.61,12.78,4.49l-32.46-33.39h0Z" style="fill:#fff;"/><path id="path30" d="M826.1,287.33c0-4.03-1.61-7.14-4.04-9.79-2.65-2.65-5.98-4.26-9.9-4.26s-7.14,1.61-9.79,4.26c-2.65,2.65-4.03,5.87-4.03,9.79s1.38,6.91,4.03,9.67c2.65,2.65,5.99,4.26,9.79,4.26s7.14-1.61,9.9-4.26c2.42-2.76,4.04-5.87,4.04-9.67ZM820.46,279.04c2.07,2.07,3.34,4.95,3.34,8.29,0,3.11-1.38,5.87-3.34,8.29-1.95,1.95-4.95,3.11-8.28,3.11s-6.22-1.15-8.29-3.11c-2.42-2.42-3.57-5.18-3.57-8.29,0-3.34,1.16-6.22,3.57-8.29,1.95-2.42,4.95-3.57,8.29-3.57s6.33,1.04,8.28,3.57Z" style="fill:#fff;"/><path id="path32" d="M817.12,280.19l-3.8-.92h-6.68v15.66h2.19v-7.14h3.11l4.26,7.14h2.42l-4.72-7.14c3.11,0,4.95-1.38,4.95-4.49.11-1.38-.35-2.65-1.72-3.11ZM816.66,283.3c0,1.84-1.84,2.65-5.18,2.65h-2.65v-4.95h4.26c2.53,0,3.57.92,3.57,2.3h0Z" style="fill:#fff;"/></svg>