<?xml version="1.0" encoding="UTF-8"?><svg id="Layer_2" xmlns="http://www.w3.org/2000/svg" xmlns:xlink="http://www.w3.org/1999/xlink" viewBox="0 0 1393.69 447.5"><defs><linearGradient id="linear-gradient" x1="64.29" y1="6643.75" x2="260.45" y2="6611.12" gradientTransform="translate(0 -6349.54)" gradientUnits="userSpaceOnUse"><stop offset=".04" stop-color="#fff"/><stop offset=".9" stop-color="#898cbf"/></linearGradient><linearGradient id="linear-gradient-2" x1="74.08" y1="-3265.55" x2="136.59" y2="-3265.55" gradientTransform="translate(-.04 -3059.82) scale(1 -1)" gradientUnits="userSpaceOnUse"><stop offset="0" stop-color="#6e70a9"/><stop offset=".97" stop-color="#514a8e"/></linearGradient><linearGradient id="linear-gradient-3" x1="136.13" y1="-3282.89" x2="136.93" y2="-3282.89" xlink:href="#linear-gradient-2"/><linearGradient id="linear-gradient-4" x1="161.21" y1="6583.77" x2="270.22" y2="6655.33" gradientTransform="translate(0 -6349.54)" gradientUnits="userSpaceOnUse"><stop offset="0" stop-color="#4c5284"/><stop offset="1" stop-color="#8789bc"/></linearGradient><linearGradient id="linear-gradient-5" x1="16.46" y1="6615.14" x2="165.91" y2="6573.6" gradientTransform="translate(0 -6349.54)" gradientUnits="userSpaceOnUse"><stop offset=".23" stop-color="#669"/><stop offset=".72" stop-color="#a7b3d9"/></linearGradient><linearGradient id="linear-gradient-6" x1="19.03" y1="6624.35" x2="168.47" y2="6582.81" gradientTransform="translate(0 -6349.54)" gradientUnits="userSpaceOnUse"><stop offset=".23" stop-color="#669"/><stop offset=".99" stop-color="#a7b3d9"/></linearGradient><linearGradient id="linear-gradient-7" x1="52.49" y1="6631.45" x2="111.92" y2="6663.25" gradientTransform="translate(0 -6349.54)" xlink:href="#linear-gradient-2"/><linearGradient id="linear-gradient-8" x1="140.78" y1="6474.75" x2="178.51" y2="6493.11" gradientTransform="translate(0 -6349.54)" gradientUnits="userSpaceOnUse"><stop offset=".04" stop-color="#9ea5d3"/><stop offset=".9" stop-color="#7675ae"/></linearGradient><linearGradient id="linear-gradient-9" x1="125.32" y1="6431.52" x2="116.42" y2="6530.4" gradientTransform="translate(0 -6349.54)" gradientUnits="userSpaceOnUse"><stop offset="0" stop-color="#aaacd2"/><stop offset=".63" stop-color="#fcfafb"/></linearGradient><linearGradient id="linear-gradient-10" x1="179.91" y1="6420.08" x2="171.01" y2="6518.97" gradientTransform="translate(0 -6349.54)" gradientUnits="userSpaceOnUse"><stop offset=".67" stop-color="#aaacd2"/><stop offset="1" stop-color="#fcfafb"/></linearGradient></defs><line x1="75.99" y1="312.93" x2="73.3" y2="310.98" style="fill:none;"/><polygon points="223.24 223.31 223.24 272.64 135.82 322.94 49.13 272.64 45.22 275.33 135.82 328.32 227.14 275.57 227.14 221.12 223.24 223.31" style="fill:url(#linear-gradient);"/><polygon points="223.24 272.4 227.14 275.33 227.14 275.57 226.9 275.81 222.75 272.88 223.24 272.64 223.24 272.4" style="fill:#7a7eae;"/><polygon points="136.55 222.83 75.01 186.93 74.04 187.91 135.82 224.53 136.55 222.83" style="fill:url(#linear-gradient-2);"/><polygon points="136.3 222.83 136.79 222.83 136.79 223.31 136.06 223.31 136.3 222.83" style="fill:url(#linear-gradient-3);"/><polygon points="136.55 224.53 136.55 222.83 267.43 147.13 267.92 148.1 136.55 224.53" style="fill:#120f22;"/><polygon points="136.55 374.22 137.52 329.05 228.36 276.79 228.61 220.63 227.14 220.63 227.14 275.57 135.82 328.32 135.57 374.22 136.55 374.22" style="fill:#453d76;"/><polygon points="136.55 293.64 136.55 224.53 267.92 148.1 267.92 298.52 136.55 374.22 136.55 328.8 227.88 276.3 227.88 220.63 197.11 238.45 197.11 257.99 136.55 293.64" style="fill:url(#linear-gradient-4);"/><polyline points="44.98 170.32 45.71 170.81 45.95 274.84 45.22 275.33 44.98 275.08 44.98 170.32" style="fill:#2d2868;"/><polygon points="49.13 272.64 45.22 275.33 45.22 170.57 136.55 117.82 136.55 122.95 49.37 173.5 49.13 272.64" style="fill:#453d76;"/><polygon points="136.55 222.58 136.55 293.64 135.82 294.13 135.82 224.53 135.82 222.34 136.55 222.58" style="fill:#453d76;"/><polygon points="74.04 187.91 74.04 258.48 135.82 294.13 135.82 224.53 74.04 187.91" style="fill:url(#linear-gradient-5);"/><polygon points="135.08 373.49 135.08 328.07 45.22 275.33 45.22 171.06 4.69 147.13 4.69 298.77 135.08 374.22 135.08 373.49" style="fill:url(#linear-gradient-6);"/><rect x="44.49" y="170.57" width=".73" height="104.76" style="fill:#2d2868;"/><polygon points="45.22 170.57 5.17 146.64 4.69 147.13 44.98 170.81 45.22 170.57" style="fill:#2d2868;"/><polygon points="135.08 328.07 135.08 328.8 44.49 276.06 44.49 275.33 45.22 275.33 135.08 328.07" style="fill:url(#linear-gradient-7);"/><polygon points="136.55 117.82 194.91 151.77 194.91 156.89 136.55 122.95 136.55 117.82" style="fill:url(#linear-gradient-8);"/><polygon points="194.91 151.77 194.91 156.89 235.45 133.21 235.45 128.57 194.91 151.77" style="fill:#484592;"/><polygon points="136.06 70.94 235.45 128.57 194.91 151.77 136.55 117.82 45.22 170.57 5.17 146.64 136.06 70.94" style="fill:url(#linear-gradient-9);"/><polygon points="75.01 186.93 135.82 152.5 193.69 185.22 264.02 144.68 267.43 147.13 136.55 222.83 75.01 186.93" style="fill:url(#linear-gradient-10);"/><path id="path23497" d="M886.95,139.56v-7.57h-21.73c-2.69,0-5.37.73-7.81,1.71-2.44.98-4.15,2.69-5.62,4.4-1.47,1.95-1.95,3.91-2.2,6.1v23.44c.24,2.2.73,4.15,1.95,6.1,1.47,1.95,3.17,3.17,5.37,4.4,2.44.98,4.88,1.71,7.81,1.71h21.98v-7.57h-21c-1.71,0-3.17-.49-4.64-1.47-1.22-.98-1.95-1.95-1.95-3.66v-8.3h27.84v-7.81h-27.84v-6.35c0-1.47.73-2.69,1.95-3.66,1.47-.98,2.93-1.47,4.64-1.47h21.24" style="fill:#656565;"/><path id="path23501" d="M1016.61,131.99v48.11h23.2c2.93-.24,5.62-.73,7.81-1.71,2.44-1.22,4.4-2.69,5.62-4.4,1.47-1.95,1.95-3.91,2.2-6.35v-23.2c-.24-2.2-.73-4.4-2.2-6.1-1.47-1.95-3.17-3.42-5.62-4.4s-4.88-1.71-7.81-1.71l-23.2-.24h0ZM1043.96,141.02c1.47.98,1.95,2.2,2.2,3.66v22.71c-.24,1.47-.73,2.69-2.2,3.66-1.22.98-2.69,1.47-4.4,1.47h-13.43v-32.97h13.43c1.71,0,3.17.49,4.4,1.47" style="fill:#656565;"/><path id="path23503" d="M1130.16,133.7c-2.2-.98-4.88-1.47-7.81-1.71h-8.3c-2.93.24-5.37.73-7.81,1.71-2.44,1.22-4.15,2.69-5.62,4.4-1.47,1.71-2.2,3.91-2.2,6.35v23.69c0,2.2.73,4.15,2.2,6.1,1.47,1.71,3.17,3.42,5.62,4.4,2.2.98,4.88,1.71,7.81,1.71h8.3c2.93,0,5.37-.49,7.81-1.71,2.44-.98,4.15-2.69,5.62-4.4,1.47-1.71,2.2-3.91,2.2-6.1v-23.69c-.24-2.2-.73-4.4-2.2-6.35-1.22-1.71-3.17-3.17-5.62-4.4ZM1126.5,140.78c1.47.98,2.2,2.2,2.2,3.66v23.2c0,1.47-.73,2.69-2.2,3.66-1.22.98-2.69,1.47-4.4,1.47h-7.81c-1.71,0-3.17-.49-4.64-1.47-1.22-.98-1.95-2.2-1.95-3.66v-23.2c0-1.47.73-2.69,1.95-3.66,1.47-.98,2.93-1.47,4.64-1.47h7.81c1.71.24,3.17.73,4.4,1.47" style="fill:#656565;"/><path id="path23515" d="M573.4,131.99h-9.52v30.77l-16.12-30.77h-12.94v48.11h9.52v-37.61l19.78,37.61h9.28v-48.11" style="fill:#656565;"/><path id="path23515-2" d="M727.49,131.99h-9.52v30.77l-15.87-30.77h-12.94v48.11h9.52v-37.61l19.78,37.61h9.28v-48.11" style="fill:#656565;"/><path id="path23515-3" d="M970.95,131.99h-9.52v30.77l-15.87-30.77h-12.94v48.11h9.52v-37.61l19.78,37.61h9.28v-48.11" style="fill:#656565;"/><path id="path23517" d="M636.65,180.09v-48.11h-10.74v48.11h10.74" style="fill:#656565;"/><path id="path23521" d="M769.49,131.99v7.57h15.87v40.54h10.26v-40.54h16.12v-7.57h-42.25" style="fill:#656565;"/><path id="path23505" d="M1332.84,239.43v-20.76h-104.27v98.16h105.25v-22.22h-77.9v-18.56h44.69v-20.76h-44.69v-15.87h76.92" style="fill:#f2f2f2;"/><path id="path23507" d="M1216.85,238.94c.24-6.84-1.71-12.21-5.86-15.38-3.91-3.42-10.01-5.13-18.31-5.13h-85.71v98.41h79.61c21-.24,31.01-7.08,31.01-21v-11.97c0-8.3-3.66-14.41-11.23-17.83,6.84-3.17,10.26-8.55,10.26-16.12l.24-10.99h0ZM1190.23,239.43c.98.98,1.47,1.95,1.22,3.42v8.79c.24,1.22-.24,2.44-1.22,3.17l-6.84,1.22h-49.08v-17.83h49.08c3.66.24,6.1.73,6.84,1.22h0ZM1134.31,295.35v-19.29h49.33c3.66,0,5.86.49,7.08,1.22.98.98,1.47,2.44,1.47,4.88v7.08c0,2.2-.49,3.91-1.47,4.64-1.22.98-3.42,1.47-7.08,1.47h-49.33" style="fill:#f2f2f2;"/><path id="path23509" d="M1095.24,218.67h-27.35v76.19h-59.58v-76.19h-27.35v73.99c-.24,6.1.73,10.99,2.44,14.65,1.47,3.42,4.4,6.1,8.3,7.57,3.91,1.71,9.04,2.44,15.87,2.2h61.29c6.84.24,12.21-.49,16.12-2.2,3.91-1.47,6.59-4.15,8.3-7.57,1.71-3.66,2.44-8.55,2.44-14.65l-.49-73.99" style="fill:#f2f2f2;"/><path id="path23511" d="M967.04,228.69c-1.71-3.66-4.64-6.1-8.3-7.81-3.91-1.47-9.28-2.2-15.87-2.2h-60.07c-6.84,0-11.97.73-15.87,2.2-3.91,1.71-6.84,4.15-8.3,7.81-1.71,3.66-2.69,8.55-2.44,14.65v49.33c-.24,6.1.73,10.99,2.44,14.65,1.47,3.42,4.4,6.1,8.3,7.57,3.91,1.71,9.04,2.44,15.87,2.2h60.07c6.59.24,11.97-.49,15.87-2.2,3.66-1.47,6.59-4.15,8.3-7.57,1.47-3.66,2.44-8.55,2.44-14.65v-18.07l-27.59.24v20.02h-58.36v-54.45h58.36v17.58h27.59v-14.65c0-6.35-.98-11.23-2.44-14.65" style="fill:#f2f2f2;"/><path id="path23513" d="M836.15,239.43v-20.76h-104.27v98.16h105.25v-22.22h-77.9v-18.56h44.69v-20.76h-44.69v-15.87h76.92" style="fill:#f2f2f2;"/><path id="path23523" d="M694.28,218.67l-41.76,69.59-41.51-69.59h-25.15v81.07l-48.84-81.07h-24.66l-58.61,98.16h73.5v-22.22h-32.72l30.28-48.84,41.02,71.06h45.18v-52.5l31.26,52.5h20.27l31.5-52.5v52.5h25.4v-98.16h-25.15" style="fill:#f2f2f2;"/><path id="path23525" d="M455.95,240.16v-21.49h-92.55c-6.59,0-11.97.73-15.87,2.2-3.91,1.71-6.59,4.15-8.3,7.81-1.71,3.66-2.44,8.55-2.44,14.65v49.33c0,6.1.73,10.99,2.44,14.65,1.71,3.42,4.4,6.1,8.3,7.57,3.91,1.71,9.28,2.44,15.87,2.2h67.4c9.77.24,16.6-1.47,20.76-5.13,3.91-3.91,5.86-10.26,5.62-19.29v-34.68h-63.73v20.51h36.87v16.36h-65.93v-54.7h91.57" style="fill:#f2f2f2;"/><path id="path23527" d="M1389,295.59h-4.15l-4.88,15.63c-.73,1.22-1.22,2.44-1.22,3.42-.49-.73-.73-1.71-1.22-2.93l-5.37-16.12h-4.15v22.47h2.44v-19.05l6.59,19.05h2.44l6.59-18.56v18.56h2.93v-22.47" style="fill:#f2f2f2;"/><path id="path23529" d="M1357.5,298.52h7.08v-2.93h-17.34v2.93h7.57v19.54h2.93l-.24-19.54" style="fill:#f2f2f2;"/></svg>