<?xml version="1.0" encoding="UTF-8"?><svg id="Layer_2" xmlns="http://www.w3.org/2000/svg" viewBox="0 0 1661.82 447.5"><polygon id="polygon3542" points="150.88 103.4 116.11 165.44 150.88 152.12 184.07 164.82 192.96 154.85 192.96 87.08 150.88 103.4" style="fill:#1747ce;"/><polygon id="polygon3558" points="258.89 326.33 196.1 244.38 196.1 352.73 150.88 371.86 150.88 186.76 196.1 169.44 258.89 259.2 258.89 145.08 301.6 128.61 301.6 308.39 258.89 326.33" style="fill:#1747ce;"/><polygon id="polygon3560" points="42.86 326.33 82.93 308.59 42.86 230.8 42.86 326.33" style="fill:#1747ce;"/><polygon id="polygon3538" points="85.57 128.61 105.67 169.44 116.11 165.44 150.88 103.4 108.81 87.03 85.57 128.61" style="fill:#069330;"/><polygon id="polygon3540" points="184.07 164.82 216.2 128.61 258.89 145.08 258.89 259.2 196.1 169.44 184.07 164.82" style="fill:#069330;"/><polygon id="polygon3552" points="42.86 145.08 .16 128.61 .16 308.39 42.86 326.33 42.86 230.8 105.67 352.73 150.88 371.86 150.88 186.76 105.67 169.44 105.67 263.41 42.86 145.08" style="fill:#069330;"/><polygon id="polygon3554" points="105.67 169.44 105.67 263.41 42.86 145.08 85.57 128.61 105.67 169.44" style="fill:#cc130e;"/><polygon id="polygon3556" points="258.89 326.33 196.1 244.38 196.1 289.15 208.93 307.13 258.89 326.33" style="fill:#cc130e;"/><polygon id="polygon3544" points="196.1 169.44 150.88 186.76 105.67 169.44 150.88 152.12 196.1 169.44" style="fill:#ffc001;"/><polygon id="polygon3546" points="216.19 128.61 258.89 112.18 301.6 128.61 258.89 145.08 216.19 128.61" style="fill:#ffc001;"/><polygon id="polygon3548" points=".16 128.61 42.86 112.18 85.57 128.61 42.86 145.08 .16 128.61" style="fill:#ffc001;"/><polygon id="polygon3550" points="192.96 87.08 150.88 70.82 108.81 87.03 150.88 103.4 192.96 87.08" style="fill:#ffc001;"/><polygon id="polygon3518" points="451.14 308.66 513.72 308.66 513.72 169.62 471.38 169.62 471.38 249.35 471.02 249.35 443.1 169.62 380.54 169.62 380.54 308.66 422.85 308.66 422.85 228.4 423.23 228.4 451.14 308.66" style="fill:#1747ce;"/><polygon id="polygon3520" points="687.2 308.66 749.77 308.66 749.77 169.62 707.46 169.62 707.46 249.35 707.08 249.35 679.16 169.62 616.6 169.62 616.6 308.66 658.93 308.66 658.93 228.4 659.3 228.4 687.2 308.66" style="fill:#1747ce;"/><polygon id="polygon3522" points="1093.67 308.66 1156.25 308.66 1156.25 169.62 1113.93 169.62 1113.93 249.35 1113.55 249.35 1085.64 169.62 1023.07 169.62 1023.07 308.66 1065.39 308.66 1065.39 228.4 1065.76 228.4 1093.67 308.66" style="fill:#1747ce;"/><polygon id="polygon3524" points="539.28 169.62 591.47 169.62 591.47 308.66 539.28 308.66 539.28 169.62" style="fill:#1747ce;"/><polygon id="polygon3526" points="798.07 207.39 764.91 207.39 764.91 169.62 883.53 169.62 883.53 207.39 850.25 207.39 850.25 308.66 798.07 308.66 798.07 207.39" style="fill:#1747ce;"/><polygon id="polygon3536" points="898.94 169.58 1002.15 169.58 1002.15 206.36 950.3 206.36 950.3 220.9 998.04 220.9 998.04 256.55 950.3 256.55 950.3 272.14 1003.8 272.14 1003.8 308.61 898.94 308.61 898.94 169.58" style="fill:#1747ce;"/><path id="path3528" d="M1178.71,169.62h61.83c52.74,0,69.52,29.85,69.52,71.06s-25.9,67.99-66.4,67.99h-64.95v-139.04h0ZM1229.8,277.07h5.09c8.39,0,14.02-2.57,17.31-8.16,3.47-5.78,3.85-16.31,3.85-29.77s-.4-23.98-3.85-29.77c-3.29-5.59-8.91-8.16-17.31-8.16h-5.09v75.87h0Z" style="fill:#1747ce;"/><path id="path3530" d="M1391.87,165.97c45.43,0,68.04,29.84,68.04,73.16s-22.61,73.18-68.04,73.18-68.04-29.85-68.04-73.18,22.6-73.16,68.04-73.16h0ZM1391.87,277.09c8.01,0,14.05-3.94,14.05-37.95s-5.68-37.94-14.05-37.94-14.05,4.7-14.05,37.94,6.02,37.95,14.05,37.95h0Z" style="fill:#1747ce;"/><path id="path3562" d="M1484.29,279.33c-9.09,0-16.48,7.38-16.48,16.49s7.38,16.51,16.48,16.51,16.51-7.38,16.51-16.51c0-9.11-7.39-16.49-16.51-16.49h0ZM1484.29,309.43c-7.5,0-13.57-6.08-13.57-13.61s6.07-13.6,13.57-13.6,13.63,6.09,13.63,13.6-6.09,13.61-13.63,13.61h0Z" style="fill:#1747ce;"/><path id="path3564" d="M1481.61,304.88h-3.89v-18.15h7.71c3.13.06,6.31,1.04,6.31,4.73,0,2.35-1.52,3.93-3.77,4.4v.04c2.99.35,2.99,2.17,3.32,4.69.17,1.15.31,3.29,1.05,4.29h-4.3c-.32-1.61-.51-3.24-.68-4.86-.1-1.01-.34-2.39-1.64-2.45h-4.12v7.31h0ZM1481.61,294.56h3.28c1.7-.02,2.72-.89,2.72-2.49s-1.01-2.29-2.72-2.31h-3.28v4.8h0Z" style="fill:#1747ce;"/><polygon id="polygon3566" points="451.14 308.66 513.72 308.66 513.72 169.62 471.38 169.62 471.38 249.35 471.02 249.35 443.1 169.62 380.54 169.62 380.54 308.66 422.85 308.66 422.85 228.4 423.23 228.4 451.14 308.66" style="fill:#1747ce;"/><polygon id="polygon3568" points="687.2 308.66 749.77 308.66 749.77 169.62 707.46 169.62 707.46 249.35 707.08 249.35 679.16 169.62 616.6 169.62 616.6 308.66 658.93 308.66 658.93 228.4 659.3 228.4 687.2 308.66" style="fill:#1747ce;"/><polygon id="polygon3570" points="1093.67 308.66 1156.25 308.66 1156.25 169.62 1113.93 169.62 1113.93 249.35 1113.55 249.35 1085.64 169.62 1023.07 169.62 1023.07 308.66 1065.39 308.66 1065.39 228.4 1065.76 228.4 1093.67 308.66" style="fill:#1747ce;"/><polygon id="polygon3572" points="539.28 169.62 591.47 169.62 591.47 308.66 539.28 308.66 539.28 169.62" style="fill:#1747ce;"/><polygon id="polygon3574" points="798.07 207.39 764.91 207.39 764.91 169.62 883.53 169.62 883.53 207.39 850.25 207.39 850.25 308.66 798.07 308.66 798.07 207.39" style="fill:#1747ce;"/><polygon id="polygon3576" points="898.94 169.58 1002.15 169.58 1002.15 206.36 950.3 206.36 950.3 220.9 998.04 220.9 998.04 256.55 950.3 256.55 950.3 272.14 1003.8 272.14 1003.8 308.61 898.94 308.61 898.94 169.58" style="fill:#1747ce;"/><path id="path3532" d="M1553.25,151.13c-2.78-.24-5.48-.13-9.24.04-22.02,1.02-30.92,10.4-33.94,21h.53c5.48-4.79,12.26-7.03,21.34-7.03,17.46,0,33.41,12.7,33.41,36.52s-17.52,40.55-41.04,40.55c-30.98,0-44.46-23.66-44.46-49.03,0-20.61,7.31-38.06,19.31-49.32,11.42-10.58,26.15-15.93,44.18-16.34,4.77-.28,7.61,0,9.91.21v23.41h0ZM1523.92,219.79c7.14,0,11.47-7.29,11.47-16.61-.06-7.86-3.66-16.43-13.23-16.43-5.85,0-10.41,3.71-12.13,8.18-.67,1.37-.92,3.33-.92,6.64.61,8.88,4.89,18.21,14.63,18.21h.18Z" style="fill:#cc130e;"/><path id="path3534" d="M1619.94,240.34v-24.95h-46.38v-19.94l37.24-66.36h37.06v63.44h11.79v22.86h-11.79v24.95h-27.92ZM1619.94,192.53v-19.12c0-7.07.42-14.41.78-22.14h-.61c-3.45,7.51-6.45,14.66-10.37,22.41l-9.11,18.52-.1.34h19.4Z" style="fill:#cc130e;"/></svg>