<?xml version="1.0" encoding="UTF-8"?>
<svg id="Layer_2" xmlns="http://www.w3.org/2000/svg" xmlns:xlink="http://www.w3.org/1999/xlink" version="1.1" viewBox="0 0 1044.5 447.5">
  <!-- Generator: Adobe Illustrator 29.2.1, SVG Export Plug-In . SVG Version: 2.1.0 Build 116)  -->
  <g>
    <path d="M915.7,312.5H128.8C57.8,312.5,0,254.7,0,183.7S57.8,54.9,128.8,54.9h786.8c71,0,128.8,57.8,128.8,128.8,0,71-57.7,128.8-128.7,128.8ZM128.8,85.4c-54.2,0-98.4,44.1-98.4,98.4s44.1,98.4,98.4,98.4h786.8c54.2,0,98.4-44.1,98.4-98.4s-44.1-98.4-98.4-98.4H128.8Z" fill="#d61616"/>
    <path d="M229.9,243.4v-118.9h-35.8v83.1l-52.8-83.1h-38.4v118.9h35.8v-85.8l55.4,85.8h35.8Z" fill="#d61616"/>
    <path d="M288,243.4v-80.5h-35.8v80.5h35.8Z" fill="#d61616"/>
    <path d="M288,146v-21.5h-35.8v21.5h35.8Z" fill="#d61616"/>
    <path id="_x33_162" d="M413.2,243.4v-55.4c0-11.6-22.4-27.7-34-27.7h-10.7c-8,0-17,7.2-25,10.7v-8h-35.8v80.5h35.8v-55.4c0-5.4,12.5-11.6,17.9-11.6s15.2,6.3,15.2,11.6v55.4h36.6Z" fill="#d61616"/>
    <path id="_x33_1621" data-name="_x33_162" d="M712.4,246.2v-55.4c0-11.6-22.3-27.7-34-27.7h-10.7c-8,0-17,7.2-25,10.7v-8h-35.8v80.5h35.8v-55.4c0-5.4,12.5-11.6,17.9-11.6s15.2,6.3,15.2,11.6v55.4h36.6Z" fill="#d61616"/>
    <path d="M471.3,243.4v-80.5h18.8v-10.6h-18.8v-17h-36.6v17h-18.8v10.7h18.8v80.5h36.6Z" fill="#d61616"/>
    <path d="M540.1,160.3c-28.6,0-52.7,19.7-52.7,43.8s24.1,44.7,52.7,44.7,45.6-14.3,51-33.1h-36.6v10.7c0,8.9-6.3,11.6-14.3,11.6s-13.4-2.7-13.4-11.6v-22.3h66.2c0-24.1-23.4-43.8-52.9-43.8ZM540.1,168.3c8,0,14.3,5.4,14.3,14.3v8h-27.7v-8c0-8.9,5.4-14.3,13.4-14.3Z" fill="#d61616"/>
    <path d="M892.4,160.3c-29.5,0-52.8,19.7-52.8,43.8s23.2,44.7,52.8,44.7,52.7-19.7,52.7-44.7c0-24.1-24.1-43.8-52.7-43.8ZM892.4,168.3c8,0,13.4,5.4,13.4,14.3v43.8c0,8.9-5.4,11.6-13.4,11.6s-14.3-2.7-14.3-11.6v-43.8c0-8.9,5.4-14.3,14.3-14.3Z" fill="#d61616"/>
    <path d="M789.6,124.5v43.8s-10.7-8-25-8c-22.3,0-41.1,19.7-41.1,41.1s18.8,44.7,41.1,44.7,25-5.4,25-5.4v2.7h35.8v-118.9h-35.8ZM776.2,173.7c8,0,13.4,6.3,13.4,14.3v33.1c0,8-5.4,10.7-13.4,10.7s-14.3-2.7-14.3-10.7v-33.1c0-8,5.3-14.3,14.3-14.3Z" fill="#d61616"/>
    <path d="M949.6,161.7c-10.1,0-18.4-8.3-18.4-18.4s8.1-19.3,18.4-19.3,18.4,8.8,18.4,19.3-8.6,18.4-18.4,18.4ZM949.6,126.9c-8.9,0-15.6,7.1-15.6,16.5s7,15.6,15.6,15.6,15.6-7.4,15.6-15.6c0-8.9-7.3-16.5-15.6-16.5ZM952.9,151.2l-3.2-5.5h-4v4.8h-2.8v-16.6h7.7c3.6,0,5.4,3,5.4,5.9s-1.1,4.5-3.2,5.5l2.6,4.6-2.5,1.3ZM945.7,142.8h4.8c.8,0,1.4-.3,1.9-.9.4-.5.7-1.3.7-2.2s-.5-3-2.6-3h-4.8v6.1h0Z" fill="#d61616"/>
  </g>
  <g>
    <path d="M80,392.6h-33.3c-9.5,0-14.3-4.8-14.3-14.3v-28.5h47.6v9.5h-38v7.1h38v9.5h-38v2.4c0,3.2,1.6,4.8,4.8,4.8h33.2v9.5Z" fill="#ccc"/>
    <path d="M84.7,392.6v-42.8h33.3c9.5,0,14.3,4.8,14.3,14.3v28.5h-9.5v-28.5c0-3.2-1.6-4.8-4.8-4.8h-23.8v33.3h-9.5Z" fill="#ccc"/>
    <path d="M137,349.8h47.6v9.5h-19v33.3h-9.5v-33.3h-19v-9.5h-.1Z" fill="#ccc"/>
    <path d="M236.9,392.6h-33.3c-9.5,0-14.3-4.8-14.3-14.3v-28.5h47.6v9.5h-38v7.1h38v9.5h-38v2.4c0,3.2,1.6,4.8,4.8,4.8h33.3v9.5h-.1Z" fill="#ccc"/>
    <path d="M251.2,376v16.6h-9.5v-42.8h33.3c9.5,0,14.3,4.3,14.3,13s-.7,7.1-2,9.1c1.4,2.3,2,5.2,2,8.8v11.9h-9.5v-11.9c0-3.2-1.6-4.8-4.8-4.8h-23.8ZM251.2,366.5h28.5v-7.2h-28.5v7.2h0Z" fill="#ccc"/>
    <path d="M294,349.8h47.6v9.5h-19v33.3h-9.6v-33.3h-19v-9.5h0Z" fill="#ccc"/>
    <path d="M355.8,380.7v11.9h-9.5v-28.5c0-9.5,4.8-14.3,14.3-14.3h19c9.5,0,14.3,4.8,14.3,14.3v28.5h-9.5v-11.9h-28.6ZM384.3,371.2v-7.1c0-3.2-1.6-4.8-4.8-4.8h-19c-3.2,0-4.8,1.6-4.8,4.8v7.1h28.6Z" fill="#ccc"/>
    <path d="M398.6,392.6v-42.8h9.5v42.8h-9.5Z" fill="#ccc"/>
    <path d="M412.9,392.6v-42.8h33.3c9.5,0,14.3,4.8,14.3,14.3v28.5h-9.5v-28.5c0-3.2-1.6-4.8-4.8-4.8h-23.8v33.3h-9.5Z" fill="#ccc"/>
    <path d="M465.2,392.6v-42.8h38c9.5,0,14.3,4.8,14.3,14.3v28.5h-9.5v-28.5c0-3.2-1.6-4.8-4.8-4.8h-7.1v33.3h-9.5v-33.3h-11.9v33.3h-9.5Z" fill="#ccc"/>
    <path d="M569.8,392.6h-33.3c-9.5,0-14.3-4.8-14.3-14.3v-28.5h47.6v9.5h-38v7.1h38v9.5h-38v2.4c0,3.2,1.6,4.8,4.8,4.8h33.3v9.5h0Z" fill="#ccc"/>
    <path d="M574.6,392.6v-42.8h33.3c9.5,0,14.3,4.8,14.3,14.3v28.5h-9.5v-28.5c0-3.2-1.6-4.8-4.8-4.8h-23.8v33.3h-9.5Z" fill="#ccc"/>
    <path d="M626.9,349.8h47.6v9.5h-19v33.3h-9.5v-33.3h-19v-9.5h0Z" fill="#ccc"/>
    <path d="M698.2,383.1h38v-7.1h-23.8c-9.5,0-14.3-4.3-14.3-12.9s4.8-13.3,14.3-13.3h33.3v9.5h-38v7.1h23.8c9.5,0,14.3,4.4,14.3,13.1s-4.8,13.1-14.3,13.1h-33.3v-9.5Z" fill="#ccc"/>
    <path d="M769.6,376h-4.8c-9.5,0-14.3-4.8-14.3-14.3v-11.9h9.5v11.9c0,3.2,1.6,4.8,4.8,4.8h19c3.2,0,4.8-1.6,4.8-4.8v-11.9h9.5v11.9c0,9.5-4.8,14.3-14.3,14.3h-4.8v16.6h-9.5v-16.6h0Z" fill="#ccc"/>
    <path d="M802.9,383.1h38v-7.1h-23.8c-9.5,0-14.3-4.3-14.3-12.9s4.8-13.3,14.3-13.3h33.3v9.5h-38v7.1h23.8c9.5,0,14.3,4.4,14.3,13.1s-4.8,13.1-14.3,13.1h-33.3v-9.5h0Z" fill="#ccc"/>
    <path d="M855.2,349.8h47.6v9.5h-19v33.3h-9.5v-33.3h-19v-9.5h0Z" fill="#ccc"/>
    <path d="M955,392.6h-33.3c-9.5,0-14.3-4.8-14.3-14.3v-28.5h47.6v9.5h-38v7.1h38v9.5h-38v2.4c0,3.2,1.6,4.8,4.8,4.8h33.2v9.5h0Z" fill="#ccc"/>
    <path d="M959.8,392.6v-42.8h38c9.5,0,14.3,4.8,14.3,14.3v28.5h-9.5v-28.5c0-3.2-1.6-4.8-4.8-4.8h-7.1v33.3h-9.5v-33.3h-11.9v33.3h-9.5Z" fill="#ccc"/>
  </g>
</svg>