<?xml version="1.0" encoding="UTF-8"?>
<svg id="Layer_2" xmlns="http://www.w3.org/2000/svg" xmlns:xlink="http://www.w3.org/1999/xlink" version="1.1" viewBox="0 0 1098.7 447.5">
  <!-- Generator: Adobe Illustrator 29.2.1, SVG Export Plug-In . SVG Version: 2.1.0 Build 116)  -->
  <g id="layer1">
    <path id="path3003" d="M0,154v135.4h21v-122.4h19.5s14.1,0,19,6.3c4.1,5.4,4.9,15.2,4.9,21.8s-.5,18-2.9,22c-3.6,6.1-9.5,7.3-14.7,7.3h-12.8v12h18.5s16.7.7,23.8-6.6c8.8-8.9,11-21.1,11-37.2s-5.3-29.6-16.1-34.5c-9-4.2-25.2-4.2-25.2-4.2H0" fill="#f2f2f2"/>
    <path id="path3005" d="M103.7,289.3h20.9v-135.4h-21v135.4h.1Z" fill="#f2f2f2"/>
    <path id="path3007" d="M236.6,185.5l38.5,101.3-22.1,54.4h17.4l63.6-155.7h-19.5l-27.7,75.9-25.8-75.9h-24.5" fill="#f2f2f2"/>
    <path id="path3009" d="M349.9,288.5v-12.8s22.2.9,26.9.9c10.3,0,15.4-2.2,19.2-6.3,2.3-2.5,4.4-13.6,4.4-17.5,0-5.4-.7-10.7-2.3-15.9-2-4.1-6-6.8-10.5-7-3.8-.3-9.8-1.1-16.7-1.4-7.4-.3-14.4-3.6-19.2-9.2-3.1-3.6-7.2-9.1-7.2-26s4.4-26.4,8.8-30.8c4.4-3.9,9.8-6.5,15.6-7.3,4.9-.6,9.8-1,14.7-1l29.5.9v12.8s-21.5-.9-26.1-.9c-10.3,0-13.3,2.2-17.2,6.3-2.6,3.9-4,8.5-4,13.2-.1,5.2.6,10.3,2,15.3,2,4.1,6,6.8,10.5,7.1,3.8.3,9.8,1.1,16.7,1.4,7.4.2,14.4,3.6,19.2,9.2,3.1,3.7,7.2,11.4,7.2,28.3s-4.4,29-8.8,33.4c-4.4,3.9-9.8,6.4-15.6,7.2-4.9.7-9.9,1-14.9,1l-32.3-.9" fill="#f2f2f2"/>
    <path id="path3011" d="M464.7,166.9h-21v99.4s.5,9.1,1,12.3,5.2,10.8,17.2,10.8l21.8-.4v-12.7s-5.9.4-9.5.4-8-.2-8.8-6.4c-.5-4.5-.8-8.9-.8-13.4v-58.5h23.8v-12.7h-23.8v-18.6" fill="#f2f2f2"/>
    <path id="path3013" d="M667.6,289.3h21v-103.8h-21v103.8h0Z" fill="#f2f2f2"/>
    <path id="path3015" d="M667.6,172.8h21v-18.8h-21v18.8Z" fill="#f2f2f2"/>
    <path id="path3017" d="M755.1,184.6c14.3,0,25.4,3.2,31.4,8.1,6,4.9,13.4,15.1,13.4,44.7s-7.4,39.9-13.4,44.7c-6,4.9-17.1,8.1-31.4,8.1s-25.4-3.2-31.4-8.1c-6-4.9-13.3-15.1-13.3-44.7s7.3-39.9,13.3-44.7c6-4.9,17.1-8.1,31.4-8.1ZM740.6,204.5c-2.9,3.6-6.4,11.1-6.4,32.9s3.5,29.3,6.4,32.9c8.5,7.9,21.6,7.9,30.1,0,2.9-3.6,6.4-11.1,6.4-32.9s-3.5-29.3-6.4-32.9c-8.5-7.9-21.6-7.9-30.1,0" fill="#f2f2f2"/>
    <path id="path3019" d="M843.5,200.1l20.6-.9c5.4,0,11.8,1.4,14.7,5.4,3.3,4.3,5,9.8,4.7,15.2v69.4h21v-71.1c0-13.5-4.1-21.3-10.3-26.2-8.8-7-24.6-6.3-24.6-6.3l-47.2.9v102.8h20.9v-89.2" fill="#f2f2f2"/>
    <path id="path3021" d="M625.7,166.9h-20.9v99.4s.5,9.1,1,12.3,5.1,10.8,17.2,10.8l21.8-.4v-12.7s-5.9.4-9.5.4-8-.2-8.8-6.4c-.5-4.5-.7-8.9-.8-13.4v-58.5h23.6v-12.7h-23.6v-18.6" fill="#f2f2f2"/>
    <path id="path3023" d="M204.5,219.8c.3-5.5-1.4-10.9-4.7-15.2-2.9-3.9-9.4-5.4-14.7-5.4l-27.7.9v-13.7l33.4-.9s15.8-.7,24.6,6.3c6.2,4.9,10.3,12.7,10.3,26.2v70.1l-40.3.9s-18.2,0-27.4-3.7-13.8-13.7-13.8-27.7,4.1-21.3,10.3-26.2c8.8-7,24.6-6.3,24.6-6.3h12.8v11.9h-7.2c-5.4,0-11,1-14.1,4.9-3.2,3.9-4.8,8.9-4.4,13.9,0,9.3,1.8,13.5,6.2,16.7,3.9,3,10.8,3.4,18.5,3.4l13.9-.8v-55.4" fill="#f2f2f2"/>
    <path id="path3025" d="M559.1,219.8c.3-5.5-1.3-10.9-4.6-15.2-3.1-3.9-9.4-5.4-14.7-5.4l-27.7.9v-13.7l33.4-.9s15.8-.7,24.6,6.3c6.2,4.9,10.3,12.7,10.3,26.2v70.1l-40.3.9s-18.3,0-27.4-3.7-13.9-13.7-13.9-27.7,4.2-21.3,10.3-26.2c8.8-7,24.7-6.3,24.7-6.3h12.8v11.9h-7.2c-5.4,0-11,1-14,4.9-3.3,3.9-4.9,8.9-4.5,13.9,0,9.3,1.8,13.5,6.2,16.7,3.8,3,10.8,3.4,18.5,3.4l13.8-.8v-55.4" fill="#f2f2f2"/>
    <path id="path3027" d="M942.8,290.2c11.4,0,20.6-9.3,20.6-20.8,0-11.4-9.3-20.7-20.7-20.7-11.4,0-20.6,9.3-20.6,20.8,0,5.6,2.3,10.9,6.2,14.7,3.9,3.8,9.1,5.9,14.5,5.9h0ZM925.7,269.4c0-9.5,7.6-17.2,17.1-17.2s17.1,7.7,17.1,17.2-7.6,17.2-17.1,17.2-8.9-1.8-12.1-5c-3.2-3.2-5-7.6-5-12.1" fill="#f2f2f2"/>
    <path id="path3029" d="M952.8,279.2c-.4-.2-.6-.6-.6-1-.1-.6-.2-1.2-.2-1.7v-3c0-1.1-.3-2.1-.9-3-.4-.5-.8-.8-1.3-1.1.7-.4,1.3-1,1.7-1.7.6-1.1.9-2.3.9-3.5.2-2.4-1.2-4.7-3.4-5.7-1.4-.6-2.9-.8-4.3-.8h-10.6v23h4v-9.5h6.2c.8,0,1.7,0,2.5.3.9.5,1.4,1.5,1.3,2.5l.2,3.7c0,.6,0,1.2,0,1.8,0,.3.2.6.3.9l.2.3h4.4v-1.4h-.3c0-.1,0-.1,0-.1ZM948.3,264.3c.1,1-.2,2-.9,2.6-.9.5-1.9.8-2.9.8h-6.3v-6.5h6.8c.7,0,1.5.1,2.2.4,1,.5,1.5,1.6,1.4,2.7" fill="#f2f2f2"/>
    <path id="path3031" d="M1093.3,171.4c.3,15.6-.5,23.7-5.7,31.7-4.6,6.8-13.7,13.2-33.8,13.2l-25-.8c-3.9,0-14.1,1.2-19,6.5-4.2,4.4-4.4,7.8-4.9,19.8v35h84.9v17.2h-97.2c-6.7.2-12.3-5.1-12.5-11.8v-27.2c.4-30.6,2.6-34.9,9.2-42.9,4.6-5.5,15.3-11.7,28.3-12.4,4.7-.3,9.4-.4,14.1-.2,5,.1,9.9.3,12.1.3,11.5.1,15.8-2,19-6.2,3.6-4.7,5.5-10.2,5.5-19.3s-1.7-16.5-4.9-20.2c-3.9-4.3-7.6-7.2-18.5-7.2-27.4,0-59.5.6-59.5.6v-16.2s31.3-1.4,63.3-1.9c19.9-.3,30.8,5,36.4,12.3,5.6,7.3,8,14.8,8.2,29.8" fill="#f2f2f2"/>
  </g>
</svg>