<?xml version="1.0" encoding="UTF-8"?>
<svg id="Layer_2" xmlns="http://www.w3.org/2000/svg" version="1.1" viewBox="0 0 1231.6 447.5">
  <!-- Generator: Adobe Illustrator 29.2.1, SVG Export Plug-In . SVG Version: 2.1.0 Build 116)  -->
  <path id="path2998" d="M325.9,160.6v129.5h22.7v-115.6h13.9c10,0,14.6.3,16.3,1,3.4,1.4,6.8,5.7,8.3,10.2.8,2.4,1.4,7.5,1.6,13.1.5,11.6-.9,18.8-4.4,23.5-3.7,4.9-6,5.6-16.4,5.6h-9v14.1l14.1-.3,14.1-.3,5-2.4c9.1-4.3,15.7-13.1,18.4-24.4,1.5-6.3,1.5-20.5,0-27.2-1.5-6.5-4.5-13.1-7.9-17.1-1.4-1.7-4.2-4.1-6.1-5.3-6.6-4.2-9.1-4.5-41.3-4.5h-29.1,0ZM426.1,160.6v129.5h22.7v-129.6h-22.7ZM710.6,160.6c-10.2,0-20.6.4-23.2.8-5.9.9-12.8,4.1-16.7,7.6-3.9,3.6-7.3,8.9-9.1,14.5-1.1,3.5-1.5,6.7-1.5,13.4,0,9.2.7,13.2,3.9,19.4,2.1,4.1,7.6,9.9,11.3,12.1,4.4,2.5,10,3.9,19.7,4.7,7.3.6,9,1,11.4,2.5,1.9,1.2,3.5,3.3,4.9,6.1,2,4,2.1,4.8,2.1,13.4,0,8.6-.1,9.4-2,13-1.3,2.4-3.1,4.6-5,5.9l-3,2-19.3.2-19.3.2v13.8h21.9c13.3,0,23.4-.3,25.8-.8,9-1.9,16.4-7.7,20.1-15.6,3-6.7,4.1-13.5,3.7-23.8-.4-10.8-2-16.8-6.4-23.2-5.4-8.1-11.4-10.8-26.7-12.2-5.7-.5-11.5-1.4-12.9-2-3.2-1.3-6.1-4.7-7.4-8.4-1.3-3.7-1.3-14.3,0-18.8,1.3-4.4,5.2-8.5,9.3-9.8,2-.6,8.7-.9,19.9-.9h17v-13.9h-18.5s0,0,0,0ZM971.4,160.6v19h22.7v-19h-22.7,0ZM753.2,175.2l.2,46.7c.2,45.9.2,46.7,1.8,50.9.9,2.3,2.8,5.8,4.2,7.8,2.9,4,6.7,6.7,11.5,8.4,2.3.8,6.2,1.1,13.7,1.1h10.4s0-13.9,0-13.9h-6.8c-6.5,0-6.9,0-8.8-2-1.1-1.2-2.3-3.5-2.7-5.7-.5-2.3-.7-14.4-.6-33.3l.2-29.6,12.3-.2,12.3-.2v-13.9h-24.9v-16.1h-22.8,0ZM909.9,175.2v46.1c0,44.6,0,46.2,1.5,50.7,1.7,5.3,5.3,10.5,9.1,13.5,1.5,1.1,4.4,2.6,6.5,3.3,2.9,1,6.2,1.3,13.9,1.3h10.1s0-13.9,0-13.9h-6.5c-5.4,0-6.8-.2-8.4-1.5-1-.8-2.2-2.7-2.7-4.2-.5-1.7-.8-14.8-.8-34v-31.3h24.9l-.2-6.8-.2-6.8-12.3-.2-12.2-.2v-16.1h-22.7,0ZM889.9,191.2l-24.2.4c-26,.4-28.7.7-36.4,4.6-8.5,4.3-14.5,12.8-17.2,24.3-1.1,4.8-1.3,9-1.3,27.3s0,21.8,1.7,25.7c3.2,8,8.1,13,15,15.4,3.1,1.1,6.3,1.3,16.8,1.3h13s0-13.9,0-13.9h-9.1c-8.6,0-9.2-.1-11.2-1.8-1.4-1.1-2.5-3-3-5.1-1-4-1.1-35.9,0-43.6,1.4-10.9,3.9-16.1,9-18.9,1.8-.9,4.8-1.3,13.5-1.5l11.2-.3v85.1h23.4v-27.3c0-15-.2-37.3-.5-49.5l-.5-22.2h0ZM546.2,191.2l-24.3.4c-26.5.4-30.2.9-37.5,4.8-8.4,4.5-14.4,13.4-16.9,25-1.6,7.4-2.4,37.8-1.1,45.1,1.1,6.4,4.1,12.9,7.7,16.5,2.6,2.7,7,5.3,10.7,6.5,1,.3,7.8.6,15.2.6h13.4c0,0,0-13.8,0-13.8h-9.3c-10.5,0-11.9-.5-13.9-5-.9-2-1.2-6-1.5-16.7-.3-15.2.7-31.7,2.4-37.2,1.5-4.9,4.2-8.7,7.5-10.3,2.4-1.2,4.5-1.4,13.8-1.4h11s.2,42.2.2,42.2l.2,42.3h22.7v-99h0ZM570.6,191.4c-6.6,0-12,0-12,.2,0,.1,7.5,22.2,16.7,49.1l16.7,48.9-9.4,24.2c-5.2,13.3-9.4,24.4-9.4,24.5s4.5.1,10,0l10-.2,29.2-73.2c16-40.2,29.2-73.3,29.2-73.4s-4.7-.2-10.5-.2-10.7.2-11.1.9c-.3.5-5.9,14.7-12.4,31.6-6.5,16.9-12.2,30.8-12.5,30.9-.4.1-5.6-14.1-11.5-31.6l-10.8-31.9h-12,0ZM971.4,191.4v98.8h22.7v-98.8h-22.7,0ZM1108.6,191.7l-.2,49.2h0l-.2,49.2h23.4v-85.1l11.2.3c11.8.3,13.8.8,17.2,4.4,2.6,2.8,4.5,7.9,5.3,14.5.4,3.5.8,19.4.8,36.1v29.9h22.7v-29.1c0-30.9-.6-38.2-3.5-46.5-4.1-11.4-11.5-18.1-23.6-21.4-4-1.1-8.3-1.3-28.8-1.3h-24.1c0,0,0,0,0,0ZM1051.2,191.9c-6.4,0-12.8.8-17.4,2.4-6.1,2.1-9.9,4.6-13.8,8.8-4.2,4.6-7.2,10.9-9,18.6-1.1,4.7-1.3,8.7-1.3,20.1,0,12.1.3,15.2,1.6,19.9,2.2,8.1,5.1,13.5,9.5,18,4.3,4.4,10.7,7.7,17.9,9.3,3.2.7,7.7,1,14.6.8,11.8-.3,17.4-1.8,24.3-6.5,5.8-3.9,10.1-10.2,12.6-18,3.5-11.2,4.2-29.6,1.4-43.2-1.3-6.6-4.5-13.8-8.1-18.1-3.4-4.1-8.9-7.7-14.8-9.6-4.8-1.6-11.2-2.4-17.6-2.4h0ZM1051.5,205.6c3.3,0,6.7.6,9.3,2,3.4,1.7,5.6,4.7,7.4,10.4,1.2,3.7,1.5,7.1,1.8,19.4.4,16.1-.4,23.7-2.9,29.4-1.8,4-4.6,7.2-7.7,8.5-1.3.6-4.8,1-8.1,1-4.6,0-6.4-.3-9-1.7-2-1.1-4-2.9-5.3-5-3.3-5.3-4.4-12.3-4.4-28.1,0-15,.7-21,3.5-27.1.9-2.1,2.8-4.6,4.2-5.7,2.7-2,6.9-3.1,11.2-3.1h0Z" fill="#777"/>
  <path id="path3775" d="M1211.9,284.4h1.7v-6.4h3.9c1.1,0,1.8.2,2.1.5.3.3.5,1.1.6,2.3l.2,1.9c0,.4,0,.7.1.9,0,.2.1.5.3.8h1.8v-.5c-.1-.1-.2-.3-.3-.5,0-.2-.1-.5-.2-.8l-.2-2.2c-.1-1.1-.2-1.8-.4-2.2-.3-.6-.7-1-1.4-1.1.7-.2,1.2-.5,1.7-1.2.4-.6.6-1.4.6-2.3s-.2-1.4-.5-2c-.3-.6-.8-1.1-1.4-1.4-.5-.3-1.1-.4-1.8-.5-.4,0-1.1,0-2.1,0h-5v14.7h0ZM1213.6,276.5v-5.1h3.5c.7,0,1.2,0,1.5,0,.5,0,.8.2,1.1.4.3.2.6.5.7.8.2.4.3.8.3,1.2,0,1-.3,1.7-.8,2.1-.6.4-1.5.6-2.7.6h-3.6Z" fill="#777"/>
  <path d="M1203,277.1c0-7.9,6.3-14.2,14.2-14.3h.2c7.9,0,14.3,6.4,14.3,14.3h0c0,7.9-6.4,14.3-14.3,14.3h0c-7.9,0-14.3-6.4-14.3-14.3h0ZM1207.5,277.1c0,5.4,4.4,9.8,9.8,9.8h0c5.4,0,9.8-4.4,9.8-9.8h0c0-5.3-4.2-9.6-9.5-9.8h-.3c-5.4,0-9.8,4.4-9.8,9.8h0ZM1216.4,267.1c.3.1.5.2.7.2h0c-.2,0-.4,0-.6-.1h0c-.1,0-.3-.1-.4-.2h0s0,0,0,0h0c.1,0,.3.2.4.2h0ZM1215.3,266.1h0s0,0,0,0h0ZM1215.3,266.1s0,0,0,0h0s0,0,0,0h0ZM1215,265c0-.2,0-.5.1-.8h0c0,.2-.1.4-.1.8h0Z" fill="#777"/>
  <g id="g3">
    <path id="path7" d="M142,165.6l-.2,155.1-41.6-13.5V124.8l53,14c34,9.1,54.7,26.9,54.4,57.9-.3,36.2-17.1,50.7-49.7,41.2v-71.3c0-8.6-16.1-9.1-16.1-1.2h0Z" fill="#de0029"/>
    <path id="path9" d="M81.2,277.1l-19.6,6.6c-12.7,4.4-23.5-5.9-11.8-10.1l9.5-3.4-35.6-11.3c-11,3.7-21.3,11.7-20.6,22.8.7,11.3,26.5,14,46.5,17.2,18.6,3,35.5,1.3,50.8-4.1v-11.7l-19.1-6.1h0ZM142.2,320.7l36.3-12.7-36.7-11.7v23.5l.3.8h0Z" fill="#f3c202"/>
    <path id="path11" d="M238.8,286.7l.7-.2c15.9-5.6,22.6-13.4,20.9-20.6-2.7-12.2-22.1-18.8-52-21-21.5-1.5-42.6,3.2-63.2,10.3l-3.4,1.2,37,11.5,21.6-7.3c22.6-4.2,31.8,3.2,10,10.1l-10.8,3.7,39.2,12.2h0ZM100.3,233l-16.4,5.6,16.4,5.1v-10.6h0Z" fill="#326db3"/>
    <path id="path13" d="M178.5,308l60.3-21.3-39.2-12.2-57.8,19.8v2l36.7,11.7h0ZM100.3,270.6l-19.1,6.4,19.1,6.1v-12.5h0ZM141.8,280.6v-24.2l37,11.5-37,12.7h0ZM59.2,270.1l41.1-14.7v-11.8l-16.4-5.1-59.5,20.1c-.2,0-.5.2-.8.2l35.6,11.3h0Z" fill="#00aa9e"/>
  </g>
</svg>