<?xml version="1.0" encoding="UTF-8"?><svg id="Layer_2" xmlns="http://www.w3.org/2000/svg" viewBox="0 0 1266.61 447.5"><path id="polyline2177" d="M61.68,65.72c-11.91,0-23.5,9.8-25.63,21.93v.65l-.22.22v.66l-.22.43v.44l-.22.43v.65l-.22.43v.65l-.22.65-.22.65-.22,1.3-.43,1.52-.21,1.52-.44,1.52-.22,1.73-.44,1.74-.43,1.95-.44,1.74-.65,3.69-.44,1.96-.43,1.73-.21,1.74-.44,1.73-.43,1.74-.22,1.74-.22,1.52-.44,1.3-.22,1.52v.65l-.21.43v1.09l-.22.65v.87l-.22.43v.43c-.22,5.31.52,12.56,2.17,13.9,2.11,11.69,41.08,65.82,39.96,74.06-1.05,8.26-5.65,32.58-5.65,32.58-1.41,8.2-7.01,14.76-15.2,14.76s-13.8-6.54-12.38-14.76l7.38-40.4H14.77l-9.77,56.04c-1.99,11.38,5.71,20.41,17.16,20.41h41.49c11.49,0,22.43-9.04,24.54-20.41,0,0,10.69-52.34,10.64-56.04-.04-3.72-1.08-4.13-1.08-4.13,0-4.26-34.68-61.51-38.22-63.64-1.53-.89-2.78-6.56-2.83-9.99-.07-3.41,4.56-26.28,4.56-26.28,1.41-8.2,9.18-14.77,17.37-14.77s11.62,6.57,10.21,14.77l-6.3,36.27h29.32l10.21-54.51c2.31-12.13-5.46-21.93-17.37-21.93h-43ZM141.6,65.72l-34.75,200.25c-1.99,11.38,5.71,20.41,17.16,20.41h41.48c11.49,0,22.63-9.04,24.76-20.41l37.13-200.25h-26.06l-35.41,194.6c-.52,2.83-3.26,5.22-6.08,5.22h-20.64c-2.89,0-4.82-2.37-4.35-5.22l34.54-194.6h-27.8ZM241.51,65.72l-41.92,220.66h27.8l19.12-99.91h35.4c11.52,0,22.43-9.1,24.54-20.41l15.2-78.41c2.3-12.16-5.45-21.93-17.37-21.93h-62.77ZM340.77,65.72l-43.43,220.66h62.55l4.34-27.37h-30.84l12.6-74.49h30.84l4.34-23.02h-30.83l13.68-68.41h30.84l4.33-27.37h-58.42ZM415.48,65.72l-41.7,220.66h27.8l18.9-99.91h19.77c2.59,2.42,2.9,6.88,3.25,9.12.51,3.25,1.06,7.4.66,10.64-.36,3.22-15.21,80.14-15.21,80.14h27.81s15.64-83.79,15.64-85.14c.05-1.37,0-5.66-1.51-8.03-1.02-1.52-2.77-5.02-4.79-6.29-3.88-2.49-8.26-4.13-8.26-4.13h-1.96c7.96-3.13,22.95-8.3,24.55-16.72l15.2-78.41c2.31-12.16-5.45-21.93-17.37-21.93h-62.77ZM564.26,65.72l-41.92,220.66h31.93l25.84-127.92,10.21,127.92h27.81l41.92-220.66h-31.93l-21.72,115.33-14.34-115.33h-27.8ZM674.58,65.72l-41.91,220.66h27.8l41.91-220.66h-27.8ZM716.93,65.72l-41.91,220.66h32.15l25.85-127.92,10.21,127.92h27.81l41.91-220.66h-32.15l-21.5,115.33-14.33-115.33h-28.03ZM824.67,65.72l-5.22,27.37h17.37l-34.32,193.3h31.72l34.96-193.3h16.72l4.35-27.37h-65.58ZM901.11,65.72l-43.43,220.66h62.55l4.35-27.37h-30.84l12.82-74.49h30.83l4.35-23.02h-30.84l13.46-68.41h30.85l4.35-27.37h-58.43ZM971.7,65.72l-41.92,220.66h32.14l25.85-127.92,10.21,127.92h27.8l41.92-220.66h-32.15l-21.51,115.33-14.33-115.33h-28.02ZM1082.25,65.72l-41.93,220.66h63.42c11.52,0,22.63-9.04,24.77-20.41l33.66-178.32c2.28-12.16-5.46-21.94-17.37-21.94h-62.54ZM1201.48,65.72c-11.92,0-23.28,9.8-25.42,21.93l-31.06,178.32c-2.01,11.38,5.52,20.41,16.95,20.41h45.82c11.49,0,22.63-9.04,24.77-20.41l33.66-178.32c2.31-12.14-5.48-21.93-17.37-21.93h-47.35ZM1105.92,91.14h12.82c8.19,0,13.79,6.57,12.37,14.77l-27.37,144.43c-1.43,8.2-9.39,14.99-17.59,14.99h-12.6l32.37-174.19ZM1217.77,91.14h.87c8.19,0,13.57,6.57,12.16,14.77l-26.05,144.43c-1.42,8.17-8.97,14.99-17.16,14.99s-11.62-6.79-10.22-14.99l25.85-144.43.21-.65.22-.65.21-.87.22-.65.22-.87.21-.65.22-.65.43-.65.22-.65.44-.65.22-.65.43-.65.44-.43.43-.65.44-.65.65-.44.43-.44.44-.43.64-.44.66-.43.44-.43.64-.44.66-.22.65-.43.44-.22.86-.22.65-.21h.65l.65-.22h.87l.67-.2ZM268.22,92h13.47c2.96,0,9.23,6.77,8.69,9.77l-11.52,54.51c-.54,2.82-4.34,9.33-7.16,9.33h-16.73l-.22-.21h-.87v-.22h-.43l-.22-.21h-.22l-.22-.22-.22-.22h-.22v-.22l-.22-.22-.22-.22v-.22l-.22-.22-.22-.22v-.44l-.22-.22v-.43l-.22-.22v-.22c0-.36-.04-.9,0-1.31l13.03-66.68c1.2-.99,2.65-1.74,4.13-1.74ZM441.32,92h13.47c2.96,0,9.26,6.77,8.68,9.77l-11.52,54.3c-.5,2.84-7.57,9.56-10.42,9.56h-11.95c-2.46,0-4.16-1.62-4.34-3.9,0-.36-.05-.88,0-1.31l12.82-66.68.21-.22.22-.22.43-.22h.21l.22-.22.22-.22h.22l.22-.22h.22l.43-.21h.64v-.22h.03ZM0,305.5v72.33h1239.7v-72.33H0ZM911.33,313.1h10.63c2.58,0,4.43,2.06,3.91,4.78l-2.39,12.17h-5.86l1.29-8.04c.3-1.82-.77-3.26-2.61-3.26s-3.6,1.44-3.91,3.26l-1.08,5.87c-.19.35.36,1.99.64,2.17.81.46,8.47,13.17,8.47,14.11.18.47.29.7.21.87-.22,1.59-2.39,12.37-2.39,12.37-.46,2.48-2.87,4.56-5.42,4.56h-9.12c-2.53,0-4.16-2.08-3.7-4.56l2.18-12.37h6.3l-1.51,8.9c-.29,1.81.76,3.47,2.59,3.47s3.63-1.65,3.92-3.47l1.3-7.17c-1.16-3-8.85-13.92-9.34-16.51-.33-.29-.48-1.86-.43-3.04.07-1.29,1.73-9.34,1.73-9.34h.23v-.64l.21-.44v-.21l.21-.22v-.21l.22-.21v-.22l.22-.21.22-.22v-.21h.21l.22-.22.21-.22.22-.21v-.22h.22l.21-.21.21-.22h.22l.22-.21h.22l.22-.21h.65l.27-.26ZM961.27,313.1h7.82l1.08,18.47,9.99-18.47h7.83l-16.07,28.24-3.91,20.63h-6.95l3.48-22.16-3.28-26.71ZM1032.3,313.1h10.63c2.58,0,4.38,2.06,3.91,4.78l-2.39,12.17h-5.87l1.31-8.04c.29-1.82-.77-3.26-2.61-3.26s-3.62,1.44-3.91,3.26l-1.08,5.87c-.23.35.29,1.99.64,2.17.77.46,8.47,13.17,8.47,14.11.23.47.22.7.22.87-.3,1.59-2.18,12.37-2.18,12.37-.47,2.48-2.9,4.56-5.44,4.56h-9.33c-2.53,0-4.17-2.08-3.7-4.56l2.18-12.37h6.3l-1.52,8.91c-.3,1.81.84,3.47,2.61,3.47s3.55-1.65,3.91-3.47l1.3-7.17c-1.19-3-8.84-13.92-9.34-16.51-.33-.29-.47-1.86-.43-3.04.07-1.29,1.74-9.34,1.74-9.34l.21-.22v-.42l.22-.44v-.21l.22-.22v-.21l.22-.21v-.23l.22-.21.22-.22v-.21h.22l.2-.22.22-.22.22-.21.22-.22.22-.21.22-.22h.22l.22-.21h.21l.22-.21h.64l.29-.26ZM1082.9,313.1h14.56l-1.09,5.87h-3.7l-7.6,43h-7.17l7.6-43h-3.69l1.08-5.87ZM1139.8,313.1h13.03l-1.09,5.87h-6.73l-3.03,15.42h6.95l-1.09,4.99h-6.74l-2.82,16.51h6.72l-.86,6.08h-13.9l9.57-48.87ZM1193.45,313.1h8.04l1.29,28.24,12.38-28.02,7.82-.22-8.24,48.87h-6.08l3.9-25.84-10.86,25.84h-4.35l-1.29-26.5-4.78,26.5h-7.17l9.35-48.87ZM26.93,314.84h12.82l-.87,6.07h-6.95l-2.82,15.21h6.73l-.87,5.22h-6.95l-2.6,16.51h6.73l-1.09,6.08h-13.9l9.77-49.09ZM86.87,314.84h6.08l3.26,25.63,4.77-25.63h7.17l-9.34,49.08h-6.08l-2.39-28.46-5.64,28.46h-7.17l9.34-49.08ZM152.03,314.84h14.33l-.87,6.07h-3.69l-7.82,43.01h-6.94l7.6-43.01h-3.91l1.3-6.07ZM215.23,314.84h13.03l-1.09,6.07h-6.73l-3.04,15.21h6.73l-.87,5.22h-6.73l-2.82,16.51h6.73l-.87,6.08h-13.9l9.55-49.09ZM276.48,314.84h13.9c2.58,0,4.21,2.28,3.69,4.99l-3.26,17.37c-.36,1.88-3.67,3.42-5.43,4.13h.88v.21h.87l.22.21h.65v.21h.44v.22h.22c.29.52.43,2.09.43,2.39s-3.48,19.33-3.48,19.33h-6.3s3.36-17.1,3.48-17.81c.07-.76-.08-1.68-.22-2.39-.05-.53-.08-1.43-.65-1.96h-4.35l-4.12,22.15h-6.3l9.34-49.07ZM338.59,314.84h14.55l-.87,6.07h-3.69l-7.82,43.01h-6.95l7.6-43.01h-3.91l1.08-6.07ZM410.92,314.84h8.26l-2.61,49.08h-8.26l1.08-11.3h-4.99l-4.13,11.3h-7.38l18.02-49.08ZM468.69,314.84h6.3l-9.34,49.08h-6.08l9.13-49.08ZM524.72,314.84h6.09l3.25,25.63,4.79-25.63h6.95l-9.12,49.08h-6.3l-2.18-28.46-5.65,28.46h-7.16l9.33-49.08ZM596.62,314.84h8.04l1.29,28.45,12.39-28.23h7.81l-8.25,48.86h-6.08l3.91-25.85-10.87,25.85h-4.34l-1.3-26.49-4.77,26.49h-6.95l9.13-49.09ZM675.46,314.84h12.81l-.87,6.07h-6.95l-2.82,15.21h6.73l-.87,5.22h-6.94l-2.82,16.51h6.94l-1.08,6.08h-13.68l9.55-49.09ZM738.43,314.84h6.08l3.26,25.63,4.77-25.63h6.95l-9.12,49.08h-6.08l-2.39-28.46-5.65,28.46h-7.17l9.34-49.08ZM802.94,314.84h14.55l-1.08,6.07h-3.69l-7.6,43.01h-6.95l7.61-43.01h-3.91l1.07-6.07ZM282.35,320.7c-.34,0-.63.2-.88.44l-2.82,14.76v.22c0,.47.33.87.87.87h2.6c.65,0,2.27-1.3,2.39-1.96l2.38-12.16c.11-.7-1.08-2.18-1.73-2.18h-2.82ZM410.92,335.47l-4.56,12.38h3.47l1.08-12.38Z" style="fill:#c40000;"/></svg>