<?xml version="1.0" encoding="UTF-8"?><svg id="Layer_2" xmlns="http://www.w3.org/2000/svg" viewBox="0 0 671.29 447.5"><path d="M419.82,110.76c0,18,15.16,32.62,33.82,32.62s34.63-14.31,34.63-32.62c0-18.31-15.23-32.66-34.63-32.66s-33.82,14.64-33.82,32.66" style="fill:#8a8a8a;"/><rect x="425.43" y="176.07" width="57.74" height="186.81" style="fill:#8a8a8a;"/><path d="M537.19,110.76c0,18,15.19,32.62,33.84,32.62s34.61-14.31,34.61-32.62-15.2-32.66-34.61-32.66-33.84,14.64-33.84,32.66" style="fill:#8a8a8a;"/><rect x="542.78" y="176.07" width="57.75" height="186.81" style="fill:#8a8a8a;"/><path d="M333.61,93.81l-50.63,198.5s-38.71-149-45.01-170.13c-6.3-21.17-19.26-30.44-37.64-30.44s-31.37,9.27-37.67,30.44c-6.27,21.13-45,170.13-45,170.13l-50.66-198.5H6s58.59,211.79,66.56,236.31c6.2,19.14,20.87,34.8,42.63,34.8,24.87,0,36.51-18.14,41.89-34.8,5.33-16.56,43.26-156.44,43.26-156.44,0,0,37.92,139.88,43.24,156.44,5.38,16.66,17.02,34.8,41.88,34.8,21.77,0,36.42-15.65,42.66-34.8,7.95-24.52,66.5-236.31,66.5-236.31,0,0-61,0-61,0Z" style="fill:#8a8a8a;"/><polygon points="618.1 337.58 637.91 337.58 637.91 341.31 630.13 341.31 630.13 362.88 625.9 362.88 625.9 341.31 618.1 341.31 618.1 337.58" style="fill:#8a8a8a;"/><polygon points="640.94 337.58 647.02 337.58 653.11 357.83 659.31 337.58 665.44 337.58 665.44 362.88 661.42 362.88 661.42 341.97 655.12 362.88 650.99 362.88 644.81 341.97 644.81 362.88 640.94 362.88 640.94 337.58" style="fill:#8a8a8a;"/></svg>