<?xml version="1.0" encoding="UTF-8"?>
<svg id="Capa_1" xmlns="http://www.w3.org/2000/svg" xmlns:xlink="http://www.w3.org/1999/xlink" version="1.1" viewBox="0 0 525.5 50">
  <!-- Generator: Adobe Illustrator 29.2.1, SVG Export Plug-In . SVG Version: 2.1.0 Build 116)  -->
  <g>
    <rect x="23" y="14.8" width="3.7" height="20.7" transform="translate(-10.5 24.9) rotate(-45)" fill="#fff"/>
    <rect x="23" y="14.8" width="3.7" height="20.7" transform="translate(25.1 -10.2) rotate(45)" fill="#fff"/>
  </g>
  <path d="M226.4,31.6l4.4-6.3c.2-.3.3-.7.3-1.1v-4.4c0-1.3-1.2-2.3-2.7-2.3h-8.9c-1.5,0-2.7,1-2.7,2.3v4.4c0,.4.1.8.3,1.1l4.4,6.3c1.1,1.6,3.8,1.6,4.8,0Z" fill="#fff"/>
  <path d="M261.4,17.7l-4.4,6.3c-.2.3-.3.7-.3,1.1v4.4c0,1.3,1.2,2.3,2.7,2.3h8.9c1.5,0,2.7-1,2.7-2.3v-4.4c0-.4-.1-.8-.3-1.1l-4.4-6.3c-1.1-1.6-3.8-1.6-4.8,0Z" fill="#fff"/>
  <g>
    <path d="M132.2,19.7c-.3-.2-.7-.3-1.2-.4-.5,0-.9-.1-1.4-.1h-2.8v5.3h2.7c.6,0,1.1,0,1.5-.1.5,0,.9-.2,1.2-.4.3-.2.6-.5.8-.8.2-.3.3-.8.3-1.3s-.1-1-.3-1.3c-.2-.4-.5-.6-.8-.8Z" fill="#fff"/>
    <path d="M137,.3H24.9C11.2.3,0,11.5,0,25.1h0c0,13.7,11.2,24.9,24.9,24.9h112.1c13.7,0,24.9-11.2,24.9-24.9h0c0-13.7-11.2-24.9-24.9-24.9ZM24.9,42.9c-9.8,0-17.8-8-17.8-17.8S15,7.4,24.9,7.4s17.8,8,17.8,17.8-8,17.8-17.8,17.8ZM68.2,35.9h-12.2V16h12v3.3h-7.9v4.8h7.3v3.3h-7.3v5.3h8.2v3.3ZM87.7,35.9h-6.1l-6.3-16.1h0v16.1h-3.8V16h6.3l6,15.9h0v-15.9h3.8v19.9ZM104.7,19.2h-5.2v16.6h-4.1v-16.6h-5.3v-3.3h14.5v3.3ZM119.4,35.9h-12.2V16h12v3.3h-7.9v4.8h7.3v3.3h-7.3v5.3h8.2v3.3ZM134,35.9c0-.4-.2-.8-.3-1.2-.1-.5-.2-1-.4-1.4-.1-.5-.2-.9-.3-1.4s-.2-.8-.3-1.2c-.1-.5-.3-1-.5-1.4-.2-.4-.4-.7-.7-.9-.3-.2-.6-.4-1.1-.5s-1-.1-1.7-.1h-1.9v8h-4.1V16h7.7c.9,0,1.8,0,2.6.3.8.2,1.6.5,2.2.9.6.4,1.2,1,1.5,1.7.4.7.6,1.5.6,2.5s-.3,2.1-.9,2.9c-.6.8-1.4,1.3-2.5,1.7h0c.3.2.6.3.8.5s.5.4.6.7c.2.3.4.6.5,1,.2.4.3.9.5,1.6.3,1,.6,2,.9,3,.3,1,.6,2,.9,3.1h-4.4Z" fill="#fff"/>
  </g>
  <path d="M500.7.3H224c-13.7,0-24.9,11.2-24.9,24.9h0c0,13.7,11.2,24.9,24.9,24.9h276.7c13.7,0,24.9-11.2,24.9-24.9h0c0-13.7-11.2-24.9-24.9-24.9ZM224,42.9c-9.8,0-17.8-8-17.8-17.8s8-17.8,17.8-17.8,17.8,8,17.8,17.8-8,17.8-17.8,17.8ZM263.9,42.9c-9.8,0-17.8-8-17.8-17.8s8-17.8,17.8-17.8,17.8,8,17.8,17.8-8,17.8-17.8,17.8ZM306.9,32.9c-.4.7-.9,1.4-1.6,1.8-.7.5-1.5.8-2.4,1.1s-1.8.3-2.8.3-1.9,0-2.9-.2-2.1-.4-3.1-.8l.7-3.3c.9.4,1.8.6,2.7.8.9.2,1.7.3,2.4.3,1.1,0,2-.2,2.5-.6.6-.4.9-1,.9-1.7,0-.4,0-.7-.2-1-.1-.3-.4-.6-.7-.8s-.7-.5-1.2-.7c-.5-.2-1.1-.5-1.7-.8-.8-.3-1.5-.7-2.2-1-.7-.4-1.2-.8-1.7-1.3-.5-.5-.9-1-1.1-1.6-.3-.6-.4-1.3-.4-2s.2-1.9.6-2.6c.4-.7,1-1.3,1.6-1.8.7-.5,1.4-.8,2.3-1,.8-.2,1.7-.3,2.5-.3s1.9,0,2.8.2c.9.1,1.7.3,2.4.5l-.7,3.3c-.7-.3-1.4-.4-2.1-.6-.7-.1-1.4-.2-2.1-.2s-.8,0-1.2,0c-.4,0-.7.2-1,.3-.3.2-.5.4-.7.7s-.3.6-.3,1,0,.7.2.9c.1.3.4.5.7.8.3.2.7.5,1.2.7.5.2,1,.5,1.7.7.8.3,1.6.7,2.2,1,.7.4,1.3.8,1.8,1.3.5.5.9,1,1.1,1.6.3.6.4,1.4.4,2.2s-.2,1.8-.6,2.6ZM319.3,28.3v7.6h-4.1v-7.6l-7.3-12.3h4.8l4.6,8.5,4.7-8.5h4.7l-7.3,12.3ZM340.1,32.9c-.4.7-.9,1.4-1.6,1.8-.7.5-1.5.8-2.4,1.1-.9.2-1.8.3-2.8.3s-1.9,0-2.9-.2c-1-.2-2.1-.4-3.1-.8l.7-3.3c.9.4,1.8.6,2.7.8.9.2,1.7.3,2.4.3,1.1,0,2-.2,2.5-.6.6-.4.9-1,.9-1.7,0-.4,0-.7-.2-1-.1-.3-.4-.6-.7-.8-.3-.3-.7-.5-1.2-.7-.5-.2-1.1-.5-1.7-.8-.8-.3-1.5-.7-2.2-1-.6-.4-1.2-.8-1.7-1.3-.5-.5-.9-1-1.1-1.6-.3-.6-.4-1.3-.4-2s.2-1.9.6-2.6c.4-.7,1-1.3,1.6-1.8.7-.5,1.4-.8,2.3-1,.8-.2,1.7-.3,2.5-.3s1.9,0,2.8.2,1.7.3,2.4.5l-.7,3.3c-.7-.3-1.4-.4-2.1-.6-.7-.1-1.4-.2-2.1-.2s-.8,0-1.2,0c-.4,0-.7.2-1,.3s-.5.4-.7.7-.3.6-.3,1,0,.7.2.9c.1.3.4.5.7.8.3.2.7.5,1.2.7.5.2,1,.5,1.7.7.8.3,1.6.7,2.2,1,.7.4,1.3.8,1.8,1.3.5.5.9,1,1.1,1.6.3.6.4,1.4.4,2.2s-.2,1.8-.6,2.6ZM356.7,19.2h-5.2v16.6h-4.1v-16.6h-5.3v-3.3h14.5v3.3ZM371.4,35.9h-12.2V16h12v3.3h-7.9v4.8h7.3v3.3h-7.3v5.3h8.2v3.3ZM396.1,35.9h-3.8v-16.5h0l-4.4,16.5h-5.1l-4.3-16.5h0v16.5h-3.7V16h6.8l3.8,16h0l3.8-16h6.9v19.9ZM419.6,32.9c-.4.7-.9,1.4-1.6,1.8-.7.5-1.5.8-2.4,1.1-.9.2-1.8.3-2.8.3s-1.9,0-2.9-.2c-1-.2-2.1-.4-3.1-.8l.7-3.3c.9.4,1.8.6,2.7.8.9.2,1.7.3,2.4.3,1.1,0,2-.2,2.5-.6.6-.4.9-1,.9-1.7,0-.4,0-.7-.2-1-.1-.3-.4-.6-.7-.8-.3-.3-.7-.5-1.2-.7-.5-.2-1.1-.5-1.7-.8-.8-.3-1.5-.7-2.2-1-.6-.4-1.2-.8-1.7-1.3-.5-.5-.9-1-1.1-1.6-.3-.6-.4-1.3-.4-2s.2-1.9.6-2.6c.4-.7,1-1.3,1.6-1.8.7-.5,1.4-.8,2.3-1,.8-.2,1.7-.3,2.5-.3s1.9,0,2.8.2,1.7.3,2.4.5l-.7,3.3c-.7-.3-1.4-.4-2.1-.6-.7-.1-1.4-.2-2.1-.2s-.8,0-1.2,0c-.4,0-.7.2-1,.3s-.5.4-.7.7-.3.6-.3,1,0,.7.2.9c.1.3.4.5.7.8.3.2.7.5,1.2.7.5.2,1,.5,1.7.7.8.3,1.6.7,2.2,1,.7.4,1.3.8,1.8,1.3.5.5.9,1,1.1,1.6.3.6.4,1.4.4,2.2s-.2,1.8-.6,2.6ZM435.8,35.9h-12.2V16h12v3.3h-7.9v4.8h7.3v3.3h-7.3v5.3h8.2v3.3ZM451.1,35.9h-12V16h4.1v16.6h7.9v3.3ZM465.9,35.9h-12.2V16h12v3.3h-7.9v4.8h7.3v3.3h-7.3v5.3h8.2v3.3ZM480.6,36c-.8.1-1.7.2-2.6.2-1.5,0-2.9-.3-4.1-.8-1.2-.5-2.3-1.2-3.1-2.1-.9-.9-1.5-2-2-3.2s-.7-2.6-.7-4.1.2-2.9.7-4.2c.5-1.3,1.1-2.4,2-3.3s1.9-1.6,3.2-2.1c1.3-.5,2.7-.8,4.2-.8s1.7,0,2.5.2c.8.1,1.5.3,2.2.6l-.8,3.2c-.5-.2-1.1-.4-1.7-.5-.6-.1-1.2-.2-1.8-.2-1.1,0-2,.2-2.8.6-.8.4-1.5.9-2,1.5-.5.6-.9,1.4-1.2,2.3s-.4,1.8-.4,2.7.1,1.8.4,2.6.7,1.6,1.2,2.2c.5.6,1.2,1.2,2,1.5.8.4,1.7.6,2.8.6s1.4,0,2-.2c.6-.1,1.2-.3,1.7-.6l.7,3.1c-.7.3-1.5.5-2.3.7ZM498.8,19.2h-5.2v16.6h-4.1v-16.6h-5.3v-3.3h14.5v3.3Z" fill="#fff"/>
</svg>