<?xml version="1.0" encoding="utf-8"?>
<!-- Generator: Adobe Illustrator 29.2.1, SVG Export Plug-In . SVG Version: 9.03 Build 55982)  -->
<svg version="1.1" baseProfile="tiny" id="Ebene_1" xmlns:xlink="http://www.w3.org/1999/xlink"
	 xmlns="http://www.w3.org/2000/svg" xmlns:xlink="http://www.w3.org/1999/xlink" x="0px" y="0px" viewBox="0 0 21.8 20.8"
	 overflow="visible" xml:space="preserve">
<path fill="#9B9A9A" d="M8.1,3.7l1.3,4c0,0.3,0.4,0.5,0.7,0.5h4.2c0.6,0,0.9,0.8,0.4,1.2l-3.4,2.5c-0.2,0.2-0.3,0.5-0.2,0.7l1.3,4
	c0.2,0.6-0.5,1.1-1,0.7L8,14.8c-0.2-0.2-0.5-0.2-0.8,0l-3.4,2.5c-0.5,0.4-1.2-0.1-1-0.7l1.3-4c0-0.3,0-0.6-0.2-0.7L0.3,9.4
	C-0.2,9,0,8.2,0.7,8.2h4.2c0.3,0,0.5-0.2,0.6-0.5l1.3-4C7.1,3.1,7.9,3.1,8.1,3.7z"/>
</svg>
