<?xml version="1.0" encoding="utf-8"?>
<!-- Generator: Adobe Illustrator 29.2.1, SVG Export Plug-In . SVG Version: 9.03 Build 55982)  -->
<svg version="1.1" baseProfile="tiny" id="Ebene_1" xmlns:xlink="http://www.w3.org/1999/xlink"
	 xmlns="http://www.w3.org/2000/svg" xmlns:xlink="http://www.w3.org/1999/xlink" x="0px" y="0px" viewBox="0 0 21.8 20.8"
	 overflow="visible" xml:space="preserve">
<path fill="#9B9A9A" d="M7.4,4.9l1,3c0.1,0.8,0.9,1.3,1.7,1.3h3.2l-2.6,1.9l0,0l0,0c-0.5,0.5-0.7,1.2-0.4,1.8l0.9,2.9L8.7,14
	c-0.3-0.2-0.6-0.4-1-0.4s-0.7,0.1-1,0.3l-2.5,1.8l1-2.9v-0.2v-0.2c0-0.4,0-1.2-0.7-1.6L1.8,9h3.1c0.7,0,1.3-0.5,1.6-1.2l1-3.1
	 M7.5,3.2C7.2,3.2,7,3.3,6.8,3.6l-1.3,4c0,0.3-0.3,0.5-0.6,0.5H0.7C0,8.1-0.2,8.9,0.3,9.3l3.6,2.5c0.2,0.1,0.2,0.4,0.2,0.7l-1.3,4
	C2.7,17,3,17.3,3.4,17.3s0.3,0,0.4-0.1l3.4-2.5c0.2,0,0.3-0.2,0.4-0.2s0.3,0,0.4,0.2l3.4,2.5c0.1,0,0.3,0.1,0.4,0.1
	c0.4,0,0.8-0.4,0.6-0.8l-1.3-4c-0.1-0.2,0-0.5,0.2-0.7l3.4-2.5c0.5-0.4,0.2-1.2-0.4-1.2h-4.2c-0.3,0-0.7-0.2-0.7-0.5l-1.3-4
	C8,3.3,7.7,3.2,7.5,3.2C7.5,3.2,7.5,3.2,7.5,3.2z"/>
</svg>
